ply
format ascii 1.0
comment Created by Blender 2.81 (sub 16) - www.blender.org, source file: 'beanbag.blend'
element vertex 209
property float x
property float y
property float z
property float nx
property float ny
property float nz
property float s
property float t
element face 304
property list uchar uint vertex_indices
end_header
0.283420 0.249197 -0.254678 0.308664 -0.398846 -0.863491 0.616158 0.873771
0.434604 0.295065 -0.187279 0.633747 -0.110752 -0.765557 0.513651 0.836573
0.382415 0.220206 -0.182834 0.426557 -0.655812 -0.622822 0.563033 0.813742
0.408351 0.408464 -0.149791 0.297891 0.673696 -0.676290 0.451653 0.888990
0.422430 0.350413 -0.183193 0.522629 0.342021 -0.780938 0.492217 0.861881
0.349505 0.345384 -0.224146 0.340983 0.453017 -0.823664 0.534974 0.900599
0.484909 0.379719 -0.116233 0.707175 0.335765 -0.622181 0.442852 0.828413
0.455475 0.246652 -0.138891 0.696310 -0.507187 -0.507797 0.516064 0.795359
0.503146 0.270082 -0.079778 0.840327 -0.394879 -0.371288 0.480978 0.771044
0.484222 0.223741 -0.030290 0.715842 -0.669912 -0.196814 0.495939 0.737345
0.189902 0.269671 -0.280915 0.096866 -0.083712 -0.991760 0.672293 0.915307
0.310618 0.296494 -0.253626 0.351451 0.038453 -0.935392 0.584090 0.893373
0.264120 0.177457 -0.169038 0.099033 -0.973205 -0.207465 0.643597 0.799741
0.219594 0.201139 -0.237649 0.138920 -0.763024 -0.631214 0.667280 0.853016
0.194640 0.369401 -0.220945 -0.126682 0.862850 -0.489303 0.151975 0.356790
0.336492 0.413662 -0.152236 -0.006592 0.816614 -0.577105 0.079302 0.502149
0.261279 0.347430 -0.250684 0.113498 0.559465 -0.821009 0.077693 0.360094
0.142042 0.381554 -0.116826 -0.271523 0.956877 -0.103122 0.251026 0.405349
-0.011730 0.336359 -0.205062 -0.199255 0.876858 -0.437452 0.319302 0.255228
0.037382 0.357892 -0.114626 -0.157842 0.985198 -0.066408 0.328720 0.347151
0.347620 0.172990 0.074360 -0.038209 -0.999237 -0.005158 0.558993 0.651202
0.258514 0.202500 0.013548 -0.168737 -0.985443 0.020203 0.634283 0.670964
0.293803 0.453221 -0.082782 -0.368725 0.744530 -0.556505 0.160184 0.546219
0.354057 0.539840 -0.043290 -0.102237 0.683187 -0.723014 0.154596 0.654137
0.407954 0.461647 -0.081241 0.243599 0.700461 -0.670797 0.065892 0.616322
0.407060 0.198606 -0.121813 0.412702 -0.851222 -0.324107 0.550189 0.776020
0.391051 0.173541 -0.027799 0.203406 -0.976165 -0.075320 0.553086 0.720110
0.521662 0.336388 -0.072752 0.909055 0.004273 -0.416608 0.446645 0.785559
0.084689 0.176540 -0.182450 -0.012848 -0.987426 -0.157414 0.770364 0.823621
-0.201130 0.351728 -0.044196 -0.030976 0.978027 -0.206091 0.519210 0.293599
-0.247213 0.333497 -0.091980 -0.348369 0.818690 -0.456435 0.527827 0.243289
-0.294715 0.362038 0.014968 -0.442824 0.830164 -0.338694 0.601748 0.287488
0.476443 0.486451 -0.009553 0.439650 0.651143 -0.618610 0.041166 0.717788
0.377394 0.581982 0.009881 0.095248 0.821680 -0.561876 0.174770 0.715661
0.443746 0.536654 -0.005435 0.522507 0.574541 -0.629933 0.101076 0.723461
0.471389 0.548901 0.061280 0.714072 0.645100 -0.271889 0.101707 0.796040
0.257345 0.547190 0.079527 -0.608112 0.472976 -0.637532 0.296186 0.666127
0.194590 0.659087 0.183927 -0.429762 0.525651 -0.734123 0.412644 0.756726
0.325822 0.615562 0.077989 -0.334147 0.716727 -0.612018 0.254399 0.744252
0.322010 0.664572 0.151806 0.312052 0.921812 -0.229835 0.304871 0.810138
-0.288109 0.201121 -0.040029 -0.540361 -0.786004 -0.300241 0.599671 0.152425
-0.301022 0.256773 -0.087555 -0.788751 -0.162603 -0.592792 0.566598 0.191250
-0.221540 0.223225 -0.145316 -0.550310 -0.478622 -0.684103 0.506467 0.149382
0.237480 0.417264 -0.102269 -0.335032 0.905240 -0.261269 0.189744 0.483499
-0.293634 0.292798 0.378786 -0.701987 -0.525773 0.480331 0.923825 0.298915
-0.319518 0.357597 0.382334 -0.904813 -0.150395 0.398328 0.899365 0.358294
-0.348109 0.234680 0.181818 -0.908322 -0.379254 0.176244 0.756797 0.215891
0.465141 0.227870 0.244442 0.610889 -0.745140 0.267464 0.448549 0.595744
0.298598 0.204006 0.375488 0.353893 -0.829493 0.432020 0.476029 0.481473
0.409474 0.186907 0.193135 0.352580 -0.926603 0.130650 0.494664 0.603035
0.484084 0.389868 0.334068 0.829829 0.101505 0.548692 0.350600 0.567466
0.417613 0.315265 0.400661 0.629749 -0.301553 0.715842 0.390489 0.517088
0.504990 0.304003 0.282719 0.872982 -0.299753 0.384686 0.398490 0.593080
0.406078 0.374843 0.418754 0.605335 0.067110 0.793115 0.358583 0.504616
0.397356 0.254629 0.369618 0.503922 -0.657125 0.560533 0.428313 0.522128
0.468638 0.281193 0.320060 0.701315 -0.487808 0.519761 0.410174 0.565857
0.234848 0.240220 0.467474 0.335643 -0.604602 0.722343 0.451232 0.418559
0.267909 0.169461 0.230709 -0.028657 -0.996094 -0.083163 0.553034 0.537515
-0.016269 0.506184 0.217143 0.017060 0.543626 -0.839106 0.537621 0.573082
-0.120812 0.596432 0.244935 0.166265 0.652211 -0.739555 0.650579 0.584145
-0.070767 0.632031 0.278705 -0.056093 0.601520 -0.796869 0.642630 0.647822
0.163072 0.391110 -0.008568 -0.441786 0.881069 -0.168798 0.302265 0.488872
0.101109 0.250335 0.513770 0.110416 -0.541093 0.833644 0.464203 0.336015
0.145918 0.189996 0.440453 0.104740 -0.857082 0.504379 0.507045 0.386553
0.046900 0.337656 0.552703 0.068636 -0.172582 0.982574 0.420058 0.285042
0.173327 0.316154 0.523689 0.283639 -0.182348 0.941404 0.412712 0.364379
0.131019 0.505803 0.527816 0.256172 0.250099 0.933683 0.303549 0.312425
0.293842 0.322599 0.479011 0.424818 -0.191656 0.884732 0.395397 0.436950
0.312657 0.405955 0.466151 0.463301 0.207465 0.861538 0.344217 0.442957
-0.280002 0.553222 0.230790 -0.833735 0.540635 -0.112033 0.732208 0.478044
-0.292074 0.502256 0.293546 -0.885678 0.451888 0.106449 0.791064 0.458544
-0.255925 0.574961 0.292657 -0.748009 0.618030 0.241829 0.763893 0.518585
0.461727 0.569209 0.179553 0.711722 0.674184 0.197150 0.166179 0.901936
0.471036 0.567242 0.119208 0.736076 0.673727 -0.065096 0.133763 0.850228
0.358687 0.616673 0.245004 0.581225 0.744835 0.327647 0.142288 0.561236
0.438189 0.554572 0.257058 0.642018 0.632405 0.433393 0.225412 0.598883
0.461727 0.569209 0.179553 0.711722 0.674184 0.197150 0.205163 0.673219
0.358687 0.616673 0.245004 0.581225 0.744835 0.327647 0.296630 0.916906
0.495993 0.454312 0.276017 0.823145 0.384167 0.418134 0.312535 0.603483
-0.267389 0.179278 0.193826 -0.187201 -0.976226 0.108951 0.786856 0.138521
-0.323382 0.193026 0.137779 -0.588610 -0.808130 0.020631 0.730703 0.173540
-0.240307 0.179287 0.045432 -0.114017 -0.992859 -0.034974 0.661258 0.102624
0.142643 0.473299 0.141022 -0.531602 0.477248 -0.699698 0.397357 0.592351
0.093652 0.643628 0.241685 -0.419141 0.387890 -0.820856 0.508334 0.719146
-0.089039 0.428331 0.141409 0.167791 0.621296 -0.765374 0.537752 0.473641
0.095907 0.709294 0.335205 -0.022523 0.932768 0.359722 0.574259 0.813705
0.094536 0.705846 0.276732 -0.285684 0.829859 -0.479263 0.538049 0.773920
0.028788 0.701159 0.314001 -0.281137 0.958190 -0.052736 0.602263 0.756901
0.164276 0.553273 0.492661 0.339854 0.546831 0.765130 0.263792 0.332643
0.227448 0.508151 0.482588 0.486587 0.368664 0.792016 0.288188 0.379455
0.040641 0.235421 0.502816 -0.063204 -0.666555 0.742729 0.489037 0.304846
0.267480 0.585473 0.394730 0.508011 0.593951 0.623768 0.212887 0.425173
0.368986 0.542005 0.341491 0.560411 0.575182 0.595843 0.236701 0.515146
0.233535 0.699118 0.205975 -0.003784 0.920713 -0.390210 0.404692 0.809807
-0.034926 0.170373 -0.112433 -0.002716 -0.998901 -0.046205 0.874334 0.779845
-0.102520 0.189388 -0.177994 -0.193518 -0.864589 -0.463668 0.924095 0.847711
0.084137 0.282000 -0.275367 -0.159154 0.135990 -0.977813 0.749826 0.939656
0.122524 0.229677 -0.271344 -0.070101 -0.477218 -0.875973 0.727534 0.896116
0.049486 0.256186 -0.264278 -0.184484 -0.202673 -0.961699 0.781098 0.922256
-0.132774 0.186181 0.345165 -0.237373 -0.921873 0.306223 0.641855 0.208559
-0.138967 0.182427 0.271070 -0.023774 -0.999695 -0.001892 0.707836 0.209407
0.044391 0.159748 0.354452 -0.067812 -0.990600 0.118534 0.607616 0.360186
-0.080265 0.245456 -0.236069 -0.330454 -0.203589 -0.921567 0.360833 0.150886
-0.157859 0.289987 -0.194842 -0.455672 0.380322 -0.804773 0.436059 0.192780
-0.012570 0.298546 -0.246007 -0.258034 0.434919 -0.862667 0.299292 0.206595
-0.080265 0.245456 -0.236069 -0.330454 -0.203589 -0.921567 0.895020 0.917156
0.019117 0.217299 -0.250858 -0.115390 -0.539079 -0.834284 0.810460 0.893624
-0.012570 0.298546 -0.246007 -0.258034 0.434919 -0.862667 0.831858 0.964411
0.136328 0.322440 -0.266098 -0.085543 0.548875 -0.831477 0.702842 0.969759
0.025585 0.649977 0.400173 -0.064608 0.830042 0.553941 0.161748 0.214730
-0.071308 0.660213 0.356234 -0.273019 0.925413 0.262734 0.154776 0.114209
-0.048844 0.610373 0.464870 -0.155736 0.771386 0.616993 0.241813 0.171115
-0.321448 0.390755 0.182732 -0.907620 0.392102 -0.149846 0.726814 0.346151
-0.329810 0.435983 0.323932 -0.947233 0.308786 0.085788 0.830941 0.406319
-0.140113 0.357228 0.059056 0.112064 0.915403 -0.386547 0.521988 0.383507
0.052366 0.349512 0.006921 -0.159917 0.981811 -0.102206 0.380325 0.433323
-0.013714 0.366565 0.088654 -0.031404 0.861568 -0.506638 0.457204 0.455824
-0.138670 0.224396 -0.202908 -0.424604 -0.444838 -0.788537 0.424622 0.138218
-0.177710 0.180100 -0.100908 -0.230476 -0.941374 -0.246284 0.519028 0.084908
-0.246887 0.386610 0.062544 -0.022004 0.853816 -0.520066 0.601576 0.344438
-0.357025 0.289872 0.055006 -0.983184 0.091037 -0.158147 0.657848 0.239249
-0.342150 0.229985 0.034447 -0.866115 -0.454024 -0.208930 0.652502 0.195261
-0.312422 0.311303 -0.050046 -0.777367 0.430738 -0.458419 0.581021 0.232872
-0.248243 0.299943 -0.127052 -0.574114 0.362224 -0.734275 0.517519 0.210248
-0.305802 0.378294 0.078325 -0.591327 0.731376 -0.339640 0.644587 0.316207
-0.253216 0.422150 0.097006 -0.177068 0.628315 -0.757500 0.631742 0.373902
-0.102520 0.189388 -0.177994 -0.193518 -0.864589 -0.463668 0.413861 0.086703
0.527559 0.414226 0.221434 0.954039 0.158971 0.254006 0.342869 0.638107
-0.267389 0.179278 0.193826 -0.187201 -0.976226 0.108951 0.786990 0.094162
-0.190365 0.544397 0.166312 0.127628 0.616504 -0.776910 0.650749 0.491848
0.202845 0.451421 0.062358 -0.619251 0.621754 -0.479446 0.317621 0.572537
0.313604 0.543837 0.002427 -0.561785 0.645772 -0.517014 0.210189 0.657350
-0.296985 0.204352 0.243255 -0.542924 -0.764336 0.347850 0.821965 0.185587
-0.342267 0.363157 0.275881 -0.993347 0.106357 0.043550 0.807341 0.339367
-0.260589 0.475093 0.439862 -0.671743 0.403638 0.621113 0.384080 0.018804
-0.259308 0.363956 0.468438 -0.666982 -0.143712 0.731040 0.481763 0.059718
-0.167437 0.471580 0.513878 -0.406995 0.304971 0.860988 0.373390 0.116760
-0.313296 0.412492 0.395404 -0.881283 0.140660 0.451125 0.895452 0.408357
-0.259308 0.363956 0.468438 -0.666982 -0.143712 0.731040 0.990482 0.395448
-0.193142 0.374635 0.512761 -0.440046 -0.109958 0.891201 0.449388 0.121092
-0.086668 0.296862 0.527535 -0.244453 -0.488845 0.837397 0.474632 0.211411
-0.047982 0.364846 0.554481 -0.119663 -0.091800 0.988556 0.420563 0.222210
-0.020531 0.674442 0.298439 -0.328562 0.759789 -0.560991 0.625801 0.709826
-0.095201 0.654248 0.308377 -0.242927 0.921690 -0.302347 0.683934 0.661959
-0.071308 0.660213 0.356234 -0.273019 0.925413 0.262734 0.703479 0.712836
0.157015 0.720237 0.288023 0.070009 0.996460 0.046327 0.505168 0.821252
0.456496 0.196851 -0.003328 0.515091 -0.854152 -0.071291 0.511426 0.716903
0.053915 0.514655 0.537275 0.049257 0.289407 0.955901 0.309294 0.262409
-0.036730 0.539230 0.522913 -0.146306 0.417188 0.896939 0.304457 0.198490
0.070421 0.581085 0.501370 0.101138 0.652211 0.751244 0.256233 0.264705
-0.098737 0.566308 0.486961 -0.340587 0.572832 0.745537 0.288895 0.145493
-0.135219 0.598222 0.435359 -0.439619 0.721519 0.534867 0.257572 0.099374
0.118033 0.648580 0.403072 0.133488 0.760765 0.635121 0.157727 0.301260
-0.218866 0.607873 0.246402 -0.344157 0.884030 -0.316202 0.715064 0.535734
-0.205347 0.572760 0.383359 -0.639180 0.649922 0.411054 0.835473 0.580025
-0.176903 0.626624 0.328494 -0.468184 0.860469 0.200873 0.754337 0.608745
-0.266402 0.541797 0.176436 -0.552263 0.592822 -0.586108 0.695152 0.462956
0.514851 0.245921 0.067673 0.786004 -0.617512 0.028565 0.459351 0.695147
0.539353 0.298200 0.026864 0.954741 -0.278359 -0.104617 0.437961 0.726877
0.531494 0.301748 0.188060 0.931578 -0.305887 0.196295 0.408912 0.644153
-0.205347 0.572760 0.383359 -0.639180 0.649922 0.411054 0.272629 0.024178
-0.176903 0.626624 0.328494 -0.468184 0.860469 0.200873 0.197934 0.017224
0.201704 0.204943 -0.031268 -0.147069 -0.966124 0.211982 0.679938 0.703561
0.118033 0.648580 0.403072 0.133488 0.760765 0.635121 0.621247 0.887124
0.198810 0.682077 0.338884 0.332743 0.768883 0.545946 0.512044 0.892926
0.302175 0.171095 0.267999 0.200629 -0.969176 0.142857 0.520831 0.530870
-0.339712 0.332855 0.059334 -0.834132 0.511002 -0.207434 0.649271 0.271074
0.471036 0.567242 0.119208 0.736076 0.673727 -0.065096 0.219918 0.733681
0.527688 0.460501 0.151574 0.925810 0.367565 0.088046 0.318770 0.686565
0.066921 0.501368 0.197517 -0.311197 0.453322 -0.835231 0.475285 0.597924
0.086556 0.419945 0.135401 -0.284341 0.672903 -0.682852 0.423242 0.538765
0.195455 0.190057 0.172971 -0.056612 -0.989471 -0.133152 0.619268 0.543203
0.501174 0.438247 -0.051730 0.692618 0.519730 -0.500107 0.386861 0.814907
0.545131 0.409879 0.027494 0.955992 0.238044 -0.171361 0.376685 0.753577
0.548069 0.374169 0.106736 0.997711 0.013916 0.065828 0.381559 0.699991
0.415132 0.436814 0.390426 0.589496 0.404248 0.699301 0.321344 0.518103
0.198810 0.682077 0.338884 0.332743 0.768883 0.545946 0.105302 0.382718
0.261279 0.347430 -0.250684 0.113498 0.559465 -0.821009 0.591229 0.951035
0.336492 0.413662 -0.152236 -0.006592 0.816614 -0.577105 0.466057 0.946958
0.086374 0.191315 -0.227911 -0.106388 -0.839808 -0.532334 0.762266 0.859854
0.110442 0.388472 0.079063 -0.391766 0.813990 -0.428816 0.380939 0.509770
0.471389 0.548901 0.061280 0.714072 0.645100 -0.271889 0.249741 0.787657
0.386775 0.612000 0.077450 0.411420 0.855525 -0.314280 0.205414 0.776632
0.197439 0.162558 0.348618 0.135441 -0.971862 0.192663 0.534381 0.448801
-0.292300 0.420406 0.130226 -0.757988 0.491958 -0.428205 0.674533 0.364910
0.269720 0.690614 0.262837 0.462905 0.850734 0.248909 0.071202 0.478554
0.269720 0.690614 0.262837 0.462905 0.850734 0.248909 0.406838 0.875911
-0.102520 0.189388 -0.177994 -0.193518 -0.864589 -0.463668 0.628319 0.339722
-0.034926 0.170373 -0.112433 -0.002716 -0.998901 -0.046205 0.618924 0.407576
-0.177710 0.180100 -0.100908 -0.230476 -0.941374 -0.246284 0.551834 0.330241
-0.035912 0.212961 0.457202 -0.199408 -0.825648 0.527726 0.540505 0.266653
0.025585 0.649977 0.400173 -0.064608 0.830042 0.553941 0.678265 0.814687
0.195455 0.190057 0.172971 -0.056612 -0.989471 -0.133152 0.551217 0.660939
0.044391 0.159748 0.354452 -0.067812 -0.990600 0.118534 0.382215 0.651449
-0.138967 0.182427 0.271070 -0.023774 -0.999695 -0.001892 0.354622 0.509991
-0.206636 0.290304 0.465223 -0.452925 -0.605762 0.654103 0.525247 0.126140
-0.296985 0.204352 0.243255 -0.542924 -0.764336 0.347850 0.738504 0.060465
-0.291928 0.477367 0.385871 -0.794824 0.483963 0.366008 0.871041 0.463595
-0.293634 0.292798 0.378786 -0.701987 -0.525773 0.480331 0.592615 0.045269
-0.260589 0.475093 0.439862 -0.671743 0.403638 0.621113 0.924290 0.490611
-0.003577 0.184095 0.004735 0.041780 -0.998627 0.030976 0.564611 0.475651
-0.127736 0.191627 0.143110 -0.017792 -0.999664 -0.017914 0.432703 0.462195
-0.267389 0.179278 0.193826 -0.187201 -0.976226 0.108951 0.344516 0.403439
-0.240307 0.179287 0.045432 -0.114017 -0.992859 -0.034974 0.441363 0.356277
0.201704 0.204943 -0.031268 -0.147069 -0.966124 0.211982 0.671949 0.579518
0.407954 0.461647 -0.081241 0.243599 0.700461 -0.670797 0.382078 0.894112
0.476443 0.486451 -0.009553 0.439650 0.651143 -0.618610 0.330434 0.815920
0.136328 0.322440 -0.266098 -0.085543 0.548875 -0.831477 0.169539 0.275241
0.258514 0.202500 0.013548 -0.168737 -0.985443 0.020203 0.669650 0.630928
3 0 1 2
3 3 4 5
3 4 6 1
3 7 8 9
3 0 10 11
3 2 12 13
3 14 15 16
3 17 14 18
3 19 17 18
3 20 21 12
3 22 23 24
3 25 26 12
3 6 27 1
3 21 28 12
3 29 30 31
3 32 24 23
3 33 34 23
3 34 35 32
3 36 37 38
3 33 38 39
3 40 41 42
3 43 22 15
3 44 45 46
3 47 48 49
3 50 51 52
3 53 51 50
3 51 54 55
3 51 56 54
3 20 57 21
3 58 59 60
3 43 17 61
3 62 63 56
3 64 65 66
3 56 63 48
3 65 56 67
3 68 67 53
3 69 70 71
3 39 72 73
3 74 75 76
3 39 77 72
3 76 75 78
3 79 80 81
3 82 83 37
3 58 84 59
3 85 86 87
3 88 66 89
3 63 62 90
3 91 89 92
3 91 88 89
3 74 92 75
3 38 37 93
3 28 94 95
3 96 97 98
3 99 100 101
3 102 103 104
3 95 105 106
3 96 107 108
3 109 110 111
3 112 113 70
3 114 19 29
3 115 114 116
3 42 103 117
3 80 40 81
3 81 40 118
3 31 119 29
3 120 41 121
3 121 41 40
3 41 122 123
3 119 124 125
3 118 42 126
3 46 121 80
3 42 117 126
3 78 50 127
3 99 128 100
3 120 121 46
3 129 84 125
3 130 131 22
3 132 44 46
3 133 113 112
3 134 135 136
3 137 45 138
3 138 45 44
3 139 140 141
3 132 46 80
3 114 29 119
3 83 142 86
3 129 59 84
3 143 142 60
3 144 87 142
3 143 144 142
3 47 52 55
3 145 86 85
3 47 49 146
3 80 121 40
3 66 147 64
3 148 147 149
3 150 111 151
3 65 62 56
3 54 48 47
3 136 148 150
3 111 148 149
3 149 88 152
3 59 153 143
3 154 71 70
3 155 143 153
3 26 20 12
3 69 156 112
3 157 158 159
3 155 71 154
3 71 153 69
3 134 151 160
3 151 110 161
3 129 156 153
3 162 94 28
3 64 62 65
3 83 86 37
3 163 164 85
3 49 165 20
3 112 124 166
3 167 76 168
3 169 82 170
3 171 57 101
3 172 173 6
3 174 127 159
3 50 175 53
3 116 58 170
3 84 58 116
3 2 25 12
3 1 7 2
3 25 2 7
3 4 3 6
3 27 6 173
3 146 157 47
3 173 174 158
3 25 146 26
3 173 158 27
3 26 146 49
3 37 86 93
3 26 49 20
3 9 157 146
3 8 27 158
3 152 88 176
3 11 177 5
3 5 177 178
3 14 43 15
3 13 179 97
3 97 96 10
3 17 43 14
3 10 177 11
3 115 180 61
3 5 178 3
3 28 21 162
3 168 181 167
3 181 168 173
3 23 34 32
3 22 43 61
3 182 73 35
3 181 173 172
3 131 38 33
3 131 36 38
3 33 39 182
3 22 24 15
3 52 51 55
3 183 48 63
3 53 67 51
3 112 156 184
3 21 57 171
3 185 176 91
3 168 78 127
3 76 78 168
3 50 78 175
3 75 175 78
3 39 186 77
3 74 185 92
3 185 91 92
3 68 92 89
3 92 68 175
3 187 188 189
3 28 95 106
3 179 106 98
3 98 107 96
3 68 53 175
3 22 131 23
3 89 66 68
3 115 116 180
3 19 114 115
3 42 41 123
3 103 42 123
3 79 132 80
3 114 119 125
3 120 122 41
3 140 190 90
3 124 184 125
3 30 122 31
3 117 103 102
3 114 125 84
3 28 106 179
3 163 85 191
3 192 193 194
3 63 90 190
3 140 195 190
3 128 99 196
3 64 147 141
3 137 197 113
3 136 135 139
3 136 139 141
3 196 195 198
3 169 142 83
3 142 87 86
3 144 191 85
3 144 85 87
3 58 60 142
3 151 111 110
3 125 156 129
3 129 153 59
3 153 71 155
3 197 154 70
3 154 197 199
3 59 143 60
3 179 98 97
3 6 3 172
3 192 194 200
3 165 57 20
3 70 113 197
3 70 69 112
3 122 30 123
4 201 194 202 203
3 63 101 183
3 159 158 174
4 66 65 67 68
4 158 157 9 8
3 153 156 69
3 92 175 75
4 39 93 145 186
4 31 122 166 124
3 48 54 56
4 10 96 108 177
3 11 1 0
4 196 99 190 195
4 28 179 13 12
3 135 198 195
3 39 73 182
5 203 188 204 200 201
4 148 136 141 147
3 54 47 55
3 83 82 169
4 66 88 149 147
3 169 170 58
4 8 7 1 27
4 19 18 30 29
4 130 82 36 131
4 174 173 168 127
4 5 4 1 11
4 133 120 46 45
3 131 33 23
3 91 176 88
3 31 124 119
3 116 114 84
4 149 152 109 111
3 120 166 122
4 45 137 113 133
4 52 159 127 50
3 82 37 36
4 10 0 13 97
4 172 3 205 206
3 160 151 161
3 206 181 172
4 145 85 164 186
4 7 9 146 25
3 103 123 30
3 200 194 201
3 188 203 189
3 118 40 42
3 3 178 205
4 104 18 14 207
4 200 204 208 192
5 140 90 62 64 141
4 35 34 33 182
4 159 52 47 157
4 190 99 101 63
3 165 183 57
4 120 133 112 166
3 38 93 39
3 2 13 0
3 58 142 169
3 126 117 102
4 165 49 48 183
4 107 98 106 105
3 111 150 148
4 195 140 139 135
3 170 180 116
4 61 180 130 22
3 16 207 14
4 18 104 103 30
3 184 156 125
4 136 150 151 134
3 57 183 101
3 184 124 112
3 93 86 145
4 199 197 137 138
4 115 61 17 19
3 143 155 144
4 82 130 180 170
3 56 51 67
