ply
format ascii 1.0
comment Created by Blender 2.81 (sub 16) - www.blender.org, source file: ''
element vertex 336
property float x
property float y
property float z
property float nx
property float ny
property float nz
property float s
property float t
element face 84
property list uchar uint vertex_indices
end_header
-0.035611 0.464237 0.133366 -0.247251 0.048877 0.967718 0.850082 0.000000
0.059755 0.494917 0.161046 -0.247251 0.048877 0.967718 0.925041 0.000000
0.202138 1.273906 0.153217 -0.247251 0.048877 0.967718 0.837521 0.500000
-0.007571 1.313281 0.102511 -0.247251 0.048877 0.967718 0.675041 0.500000
0.059755 0.494917 0.161046 -0.278403 0.061611 0.958486 0.925041 0.000000
0.196690 0.703953 0.188271 -0.278403 0.061611 0.958486 1.000000 0.000000
0.383135 1.200914 0.209594 -0.278403 0.061611 0.958486 1.000000 0.500000
0.202138 1.273906 0.153217 -0.278403 0.061611 0.958486 0.837521 0.500000
0.202138 1.273906 0.153217 -0.268729 0.060479 0.961315 0.837521 0.500000
0.383135 1.200914 0.209594 -0.268729 0.060479 0.961315 1.000000 0.500000
0.475940 1.739641 0.200456 -0.268729 0.060479 0.961315 1.000000 1.000000
0.333895 2.057633 0.141931 -0.268729 0.060479 0.961315 0.750000 1.000000
-0.007571 1.313281 0.102511 -0.213024 0.046037 0.975962 0.675041 0.500000
0.202138 1.273906 0.153217 -0.213024 0.046037 0.975962 0.837521 0.500000
0.333895 2.057633 0.141931 -0.213024 0.046037 0.975962 0.750000 1.000000
0.020469 2.162325 0.071656 -0.213024 0.046037 0.975962 0.500000 1.000000
-0.281161 0.714583 0.074187 -0.134171 0.021285 0.990730 0.700165 0.000000
-0.132659 0.495786 0.105144 -0.134171 0.021285 0.990730 0.775123 0.000000
-0.246419 1.290861 0.066512 -0.134171 0.021285 0.990730 0.512562 0.500000
-0.488708 1.233870 0.041068 -0.134171 0.021285 0.990730 0.350082 0.500000
-0.132659 0.495786 0.105144 -0.186867 0.031755 0.981872 0.775123 0.000000
-0.035611 0.464237 0.133366 -0.186867 0.031755 0.981872 0.850082 0.000000
-0.007571 1.313281 0.102511 -0.186867 0.031755 0.981872 0.675041 0.500000
-0.246419 1.290861 0.066512 -0.186867 0.031755 0.981872 0.512562 0.500000
-0.246419 1.290861 0.066512 -0.133807 0.035132 0.990385 0.512562 0.500000
-0.007571 1.313281 0.102511 -0.133807 0.035132 0.990385 0.675041 0.500000
0.020469 2.162325 0.071656 -0.133807 0.035132 0.990385 0.500000 1.000000
-0.345533 2.089720 0.029308 -0.133807 0.035132 0.990385 0.250000 1.000000
-0.488708 1.233870 0.041068 -0.096522 0.029818 0.994884 0.350082 0.500000
-0.246419 1.290861 0.066512 -0.096522 0.029818 0.994884 0.512562 0.500000
-0.345533 2.089720 0.029308 -0.096522 0.029818 0.994884 0.250000 1.000000
-0.567196 1.786504 0.020535 -0.096522 0.029818 0.994884 0.000000 1.000000
-0.033444 0.463834 0.123612 0.247189 -0.048864 -0.967734 0.850082 0.000000
-0.005636 1.312876 0.092709 0.247189 -0.048864 -0.967734 0.675041 0.500000
0.204656 1.273363 0.143554 0.247189 -0.048864 -0.967734 0.837521 0.500000
0.062280 0.494406 0.151384 0.247189 -0.048864 -0.967734 0.925041 0.000000
0.062280 0.494406 0.151384 0.278377 -0.061604 -0.958494 0.925041 0.000000
0.204656 1.273363 0.143554 0.278377 -0.061604 -0.958494 0.837521 0.500000
0.385874 1.200304 0.199996 0.278377 -0.061604 -0.958494 1.000000 0.500000
0.199474 0.703337 0.178686 0.278377 -0.061604 -0.958494 1.000000 0.000000
0.204656 1.273363 0.143554 0.268708 -0.060469 -0.961322 0.837521 0.500000
0.336170 2.057136 0.132206 0.268708 -0.060469 -0.961322 0.750000 1.000000
0.478627 1.739036 0.190843 0.268708 -0.060469 -0.961322 1.000000 1.000000
0.385874 1.200304 0.199996 0.268708 -0.060469 -0.961322 1.000000 0.500000
-0.005636 1.312876 0.092709 0.213022 -0.046037 -0.975962 0.675041 0.500000
0.022194 2.161921 0.061814 0.213022 -0.046037 -0.975962 0.500000 1.000000
0.336170 2.057136 0.132206 0.213022 -0.046037 -0.975962 0.750000 1.000000
0.204656 1.273363 0.143554 0.213022 -0.046037 -0.975962 0.837521 0.500000
-0.279820 0.714370 0.064280 0.134193 -0.021285 -0.990727 0.700165 0.000000
-0.487559 1.233613 0.031138 0.134193 -0.021285 -0.990727 0.350082 0.500000
-0.245051 1.290565 0.056610 0.134193 -0.021285 -0.990727 0.512562 0.500000
-0.130887 0.495488 0.095307 0.134193 -0.021285 -0.990727 0.775123 0.000000
-0.130887 0.495488 0.095307 0.186844 -0.031752 -0.981876 0.775123 0.000000
-0.245051 1.290565 0.056610 0.186844 -0.031752 -0.981876 0.512562 0.500000
-0.005636 1.312876 0.092709 0.186844 -0.031752 -0.981876 0.675041 0.500000
-0.033444 0.463834 0.123612 0.186844 -0.031752 -0.981876 0.850082 0.000000
-0.245051 1.290565 0.056610 0.133848 -0.035136 -0.990379 0.512562 0.500000
-0.344313 2.089385 0.019388 0.133848 -0.035136 -0.990379 0.250000 1.000000
0.022194 2.161921 0.061814 0.133848 -0.035136 -0.990379 0.500000 1.000000
-0.005636 1.312876 0.092709 0.133848 -0.035136 -0.990379 0.675041 0.500000
-0.487559 1.233613 0.031138 0.096545 -0.029820 -0.994882 0.350082 0.500000
-0.566231 1.786206 0.010586 0.096545 -0.029820 -0.994882 0.000000 1.000000
-0.344313 2.089385 0.019388 0.096545 -0.029820 -0.994882 0.250000 1.000000
-0.245051 1.290565 0.056610 0.096545 -0.029820 -0.994882 0.512562 0.500000
-0.488708 1.233870 0.041068 -0.984481 -0.143733 -0.100689 0.350082 0.500000
-0.567196 1.786504 0.020535 -0.984481 -0.143733 -0.100689 0.000000 1.000000
-0.566231 1.786206 0.010586 -0.984481 -0.143733 -0.100689 0.000000 1.000000
-0.487559 1.233613 0.031138 -0.984481 -0.143733 -0.100689 0.350082 0.500000
-0.281161 0.714583 0.074187 -0.920844 -0.375036 -0.106738 0.700165 0.000000
-0.488708 1.233870 0.041068 -0.920844 -0.375036 -0.106738 0.350082 0.500000
-0.487559 1.233613 0.031138 -0.920844 -0.375036 -0.106738 0.350082 0.500000
-0.279820 0.714370 0.064280 -0.920844 -0.375036 -0.106738 0.700165 0.000000
0.059755 0.494917 0.161046 0.273968 -0.955298 0.111117 0.925041 0.000000
-0.035611 0.464237 0.133366 0.273968 -0.955298 0.111117 0.850082 0.000000
-0.033444 0.463834 0.123612 0.273968 -0.955298 0.111117 0.850082 0.000000
0.062280 0.494406 0.151384 0.273968 -0.955298 0.111117 0.925041 0.000000
0.196690 0.703953 0.188271 0.793969 -0.553533 0.251424 1.000000 0.000000
0.059755 0.494917 0.161046 0.793969 -0.553533 0.251424 0.925041 0.000000
0.062280 0.494406 0.151384 0.793969 -0.553533 0.251424 0.925041 0.000000
0.199474 0.703337 0.178686 0.793969 -0.553533 0.251424 1.000000 0.000000
0.383135 1.200914 0.209594 0.894859 -0.347688 0.279893 1.000000 0.500000
0.196690 0.703953 0.188271 0.894859 -0.347688 0.279893 1.000000 0.000000
0.199474 0.703337 0.178686 0.894859 -0.347688 0.279893 1.000000 0.000000
0.385874 1.200304 0.199996 0.894859 -0.347688 0.279893 1.000000 0.500000
0.475940 1.739641 0.200456 0.947518 -0.158466 0.277666 1.000000 1.000000
0.383135 1.200914 0.209594 0.947518 -0.158466 0.277666 1.000000 0.500000
0.385874 1.200304 0.199996 0.947518 -0.158466 0.277666 1.000000 0.500000
0.478627 1.739036 0.190843 0.947518 -0.158466 0.277666 1.000000 1.000000
-0.345533 2.089720 0.029308 -0.186772 0.980284 -0.064490 0.250000 1.000000
0.020469 2.162325 0.071656 -0.186772 0.980284 -0.064490 0.500000 1.000000
0.022194 2.161921 0.061814 -0.186772 0.980284 -0.064490 0.500000 1.000000
-0.344313 2.089385 0.019388 -0.186772 0.980284 -0.064490 0.250000 1.000000
-0.567196 1.786504 0.020535 -0.801011 0.589039 -0.106843 0.000000 1.000000
-0.345533 2.089720 0.029308 -0.801011 0.589039 -0.106843 0.250000 1.000000
-0.344313 2.089385 0.019388 -0.801011 0.589039 -0.106843 0.250000 1.000000
-0.566231 1.786206 0.010586 -0.801011 0.589039 -0.106843 0.000000 1.000000
-0.132659 0.495786 0.105144 -0.814179 -0.569386 -0.113629 0.775123 0.000000
-0.281161 0.714583 0.074187 -0.814179 -0.569386 -0.113629 0.700165 0.000000
-0.279820 0.714370 0.064280 -0.814179 -0.569386 -0.113629 0.700165 0.000000
-0.130887 0.495488 0.095307 -0.814179 -0.569386 -0.113629 0.775123 0.000000
-0.035611 0.464237 0.133366 -0.301942 -0.952955 -0.026617 0.850082 0.000000
-0.132659 0.495786 0.105144 -0.301942 -0.952955 -0.026617 0.775123 0.000000
-0.130887 0.495488 0.095307 -0.301942 -0.952955 -0.026617 0.775123 0.000000
-0.033444 0.463834 0.123612 -0.301942 -0.952955 -0.026617 0.850082 0.000000
0.333895 2.057633 0.141931 0.879834 0.430581 0.201227 0.750000 1.000000
0.475940 1.739641 0.200456 0.879834 0.430581 0.201227 1.000000 1.000000
0.478627 1.739036 0.190843 0.879834 0.430581 0.201227 1.000000 1.000000
0.336170 2.057136 0.132206 0.879834 0.430581 0.201227 0.750000 1.000000
0.020469 2.162325 0.071656 0.312566 0.949683 0.020128 0.500000 1.000000
0.333895 2.057633 0.141931 0.312566 0.949683 0.020128 0.750000 1.000000
0.336170 2.057136 0.132206 0.312566 0.949683 0.020128 0.750000 1.000000
0.022194 2.161921 0.061814 0.312566 0.949683 0.020128 0.500000 1.000000
-0.391609 -0.251846 0.133366 0.074431 -0.240794 0.967718 0.850082 0.000000
-0.463905 -0.182498 0.161046 0.074431 -0.240794 0.967718 0.925041 0.000000
-1.217038 -0.427217 0.153217 0.074431 -0.240794 0.967718 0.837521 0.500000
-1.152077 -0.630461 0.102511 0.074431 -0.240794 0.967718 0.675041 0.500000
-0.463905 -0.182498 0.161046 0.078022 -0.274256 0.958486 0.925041 0.000000
-0.712898 -0.161288 0.188271 0.078022 -0.274256 0.958486 1.000000 0.000000
-1.238778 -0.233271 0.209594 0.078022 -0.274256 0.958486 1.000000 0.500000
-1.217038 -0.427217 0.153217 0.078022 -0.274256 0.958486 0.837521 0.500000
-1.217038 -0.427217 0.153217 0.074424 -0.265206 0.961315 0.837521 0.500000
-1.238778 -0.233271 0.209594 0.074424 -0.265206 0.961315 1.000000 0.500000
-1.756934 -0.407495 0.200456 0.074424 -0.265206 0.961315 1.000000 1.000000
-1.969294 -0.683537 0.141931 0.074424 -0.265206 0.961315 0.750000 1.000000
-1.152077 -0.630461 0.102511 0.060672 -0.209326 0.975962 0.675041 0.500000
-1.217038 -0.427217 0.153217 0.060672 -0.209326 0.975962 0.837521 0.500000
-1.969294 -0.683537 0.141931 0.060672 -0.209326 0.975962 0.750000 1.000000
-1.912546 -1.009076 0.071656 0.060672 -0.209326 0.975962 0.500000 1.000000
-0.495276 -0.586841 0.074187 0.045000 -0.128180 0.990730 0.700165 0.000000
-0.373275 -0.352234 0.105144 0.045000 -0.128180 0.990730 0.775123 0.000000
-1.018897 -0.829996 0.066512 0.045000 -0.128180 0.990730 0.512562 0.500000
-0.853660 -1.016137 0.041068 0.045000 -0.128180 0.990730 0.350082 0.500000
-0.373275 -0.352234 0.105144 0.060816 -0.179524 0.981872 0.775123 0.000000
-0.391609 -0.251846 0.133366 0.060816 -0.179524 0.981872 0.850082 0.000000
-1.152077 -0.630461 0.102511 0.060816 -0.179524 0.981872 0.675041 0.500000
-1.018897 -0.829996 0.066512 0.060816 -0.179524 0.981872 0.512562 0.500000
-1.018897 -0.829996 0.066512 0.032641 -0.134436 0.990385 0.512562 0.500000
-1.152077 -0.630461 0.102511 0.032641 -0.134436 0.990385 0.675041 0.500000
-1.912546 -1.009076 0.071656 0.032641 -0.134436 0.990385 0.500000 1.000000
-1.674806 -1.296667 0.029308 0.032641 -0.134436 0.990385 0.250000 1.000000
-0.853660 -1.016137 0.041068 0.019608 -0.099102 0.994884 0.350082 0.500000
-1.018897 -0.829996 0.066512 0.019608 -0.099102 0.994884 0.512562 0.500000
-1.674806 -1.296667 0.029308 0.019608 -0.099102 0.994884 0.250000 1.000000
-1.302691 -1.347703 0.020535 0.019608 -0.099102 0.994884 0.000000 1.000000
-0.392284 -0.249748 0.123612 -0.074413 0.240734 -0.967734 0.850082 0.000000
-1.152640 -0.628566 0.092709 -0.074413 0.240734 -0.967734 0.675041 0.500000
-1.217756 -0.424743 0.143554 -0.074413 0.240734 -0.967734 0.837521 0.500000
-0.464655 -0.180033 0.151384 -0.074413 0.240734 -0.967734 0.925041 0.000000
-0.464655 -0.180033 0.151384 -0.078016 0.274230 -0.958494 0.925041 0.000000
-1.217756 -0.424743 0.143554 -0.078016 0.274230 -0.958494 0.837521 0.500000
-1.239542 -0.230571 0.199996 -0.078016 0.274230 -0.958494 1.000000 0.500000
-0.713678 -0.158545 0.178686 -0.078016 0.274230 -0.958494 1.000000 0.000000
-1.217756 -0.424743 0.143554 -0.074422 0.265183 -0.961322 0.837521 0.500000
-1.969937 -0.681298 0.132206 -0.074422 0.265183 -0.961322 0.750000 1.000000
-1.757678 -0.404843 0.190843 -0.074422 0.265183 -0.961322 1.000000 1.000000
-1.239542 -0.230571 0.199996 -0.074422 0.265183 -0.961322 1.000000 0.500000
-1.152640 -0.628566 0.092709 -0.060671 0.209324 -0.975962 0.675041 0.500000
-1.913010 -1.007366 0.061814 -0.060671 0.209324 -0.975962 0.500000 1.000000
-1.969937 -0.681298 0.132206 -0.060671 0.209324 -0.975962 0.750000 1.000000
-1.217756 -0.424743 0.143554 -0.060671 0.209324 -0.975962 0.837521 0.500000
-0.495726 -0.585559 0.064280 -0.045010 0.128198 -0.990727 0.700165 0.000000
-0.853980 -1.015004 0.031138 -0.045010 0.128198 -0.990727 0.350082 0.500000
-1.019286 -0.828651 0.056610 -0.045010 0.128198 -0.990727 0.512562 0.500000
-0.373854 -0.350533 0.095307 -0.045010 0.128198 -0.990727 0.775123 0.000000
-0.373854 -0.350533 0.095307 -0.060808 0.179503 -0.981876 0.775123 0.000000
-1.019286 -0.828651 0.056610 -0.060808 0.179503 -0.981876 0.512562 0.500000
-1.152640 -0.628566 0.092709 -0.060808 0.179503 -0.981876 0.675041 0.500000
-0.392284 -0.249748 0.123612 -0.060808 0.179503 -0.981876 0.850082 0.000000
-1.019286 -0.828651 0.056610 -0.032657 0.134474 -0.990379 0.512562 0.500000
-1.675091 -1.295435 0.019388 -0.032657 0.134474 -0.990379 0.250000 1.000000
-1.913010 -1.007366 0.061814 -0.032657 0.134474 -0.990379 0.500000 1.000000
-1.152640 -0.628566 0.092709 -0.032657 0.134474 -0.990379 0.675041 0.500000
-0.853980 -1.015004 0.031138 -0.019617 0.099122 -0.994882 0.350082 0.500000
-1.302887 -1.346712 0.010586 -0.019617 0.099122 -0.994882 0.000000 1.000000
-1.675091 -1.295435 0.019388 -0.019617 0.099122 -0.994882 0.250000 1.000000
-1.019286 -0.828651 0.056610 -0.019617 0.099122 -0.994882 0.512562 0.500000
-0.853660 -1.016137 0.041068 0.594105 -0.798060 -0.100693 0.350082 0.500000
-1.302691 -1.347703 0.020535 0.594105 -0.798060 -0.100693 0.000000 1.000000
-1.302887 -1.346712 0.010586 0.594105 -0.798060 -0.100693 0.000000 1.000000
-0.853980 -1.015004 0.031138 0.594105 -0.798060 -0.100693 0.350082 0.500000
-0.495276 -0.586841 0.074187 0.767423 -0.632194 -0.106735 0.700165 0.000000
-0.853660 -1.016137 0.041068 0.767423 -0.632194 -0.106735 0.350082 0.500000
-0.853980 -1.015004 0.031138 0.767423 -0.632194 -0.106735 0.350082 0.500000
-0.495726 -0.585559 0.064280 0.767423 -0.632194 -0.106735 0.700165 0.000000
-0.463905 -0.182498 0.161046 0.710520 0.694849 0.111117 0.925041 0.000000
-0.391609 -0.251846 0.133366 0.710520 0.694849 0.111117 0.850082 0.000000
-0.392284 -0.249748 0.123612 0.710520 0.694849 0.111117 0.850082 0.000000
-0.464655 -0.180033 0.151384 0.710520 0.694849 0.111117 0.925041 0.000000
-0.712898 -0.161288 0.188271 0.109974 0.961609 0.251423 1.000000 0.000000
-0.463905 -0.182498 0.161046 0.109974 0.961609 0.251423 0.925041 0.000000
-0.464655 -0.180033 0.151384 0.109974 0.961609 0.251423 0.925041 0.000000
-0.713678 -0.158545 0.178686 0.109974 0.961609 0.251423 1.000000 0.000000
-1.238778 -0.233271 0.209594 -0.119090 0.952616 0.279893 1.000000 0.500000
-0.712898 -0.161288 0.188271 -0.119090 0.952616 0.279893 1.000000 0.000000
-0.713678 -0.158545 0.178686 -0.119090 0.952616 0.279893 1.000000 0.000000
-1.239542 -0.230571 0.199996 -0.119090 0.952616 0.279893 1.000000 0.500000
-1.756934 -0.407495 0.200456 -0.310616 0.909077 0.277664 1.000000 1.000000
-1.238778 -0.233271 0.209594 -0.310616 0.909077 0.277664 1.000000 0.500000
-1.239542 -0.230571 0.199996 -0.310616 0.909077 0.277664 1.000000 0.500000
-1.757678 -0.404843 0.190843 -0.310616 0.909077 0.277664 1.000000 1.000000
-1.674806 -1.296667 0.029308 -0.773925 -0.629987 -0.064475 0.250000 1.000000
-1.912546 -1.009076 0.071656 -0.773925 -0.629987 -0.064475 0.500000 1.000000
-1.913010 -1.007366 0.061814 -0.773925 -0.629987 -0.064475 0.500000 1.000000
-1.675091 -1.295435 0.019388 -0.773925 -0.629987 -0.064475 0.250000 1.000000
-1.302691 -1.347703 0.020535 -0.137873 -0.984670 -0.106844 0.000000 1.000000
-1.674806 -1.296667 0.029308 -0.137873 -0.984670 -0.106844 0.250000 1.000000
-1.675091 -1.295435 0.019388 -0.137873 -0.984670 -0.106844 0.250000 1.000000
-1.302887 -1.346712 0.010586 -0.137873 -0.984670 -0.106844 0.000000 1.000000
-0.373275 -0.352234 0.105144 0.887783 -0.446016 -0.113627 0.775123 0.000000
-0.495276 -0.586841 0.074187 0.887783 -0.446016 -0.113627 0.700165 0.000000
-0.495726 -0.585559 0.064280 0.887783 -0.446016 -0.113627 0.700165 0.000000
-0.373854 -0.350533 0.095307 0.887783 -0.446016 -0.113627 0.775123 0.000000
-0.391609 -0.251846 0.133366 0.982010 0.186941 -0.026618 0.850082 0.000000
-0.373275 -0.352234 0.105144 0.982010 0.186941 -0.026618 0.775123 0.000000
-0.373854 -0.350533 0.095307 0.982010 0.186941 -0.026618 0.775123 0.000000
-0.392284 -0.249748 0.123612 0.982010 0.186941 -0.026618 0.850082 0.000000
-1.969294 -0.683537 0.141931 -0.796823 0.569725 0.201213 0.750000 1.000000
-1.756934 -0.407495 0.200456 -0.796823 0.569725 0.201213 1.000000 1.000000
-1.757678 -0.404843 0.190843 -0.796823 0.569725 0.201213 1.000000 1.000000
-1.969937 -0.681298 0.132206 -0.796823 0.569725 0.201213 0.750000 1.000000
-1.912546 -1.009076 0.071656 -0.984178 -0.176036 0.020119 0.500000 1.000000
-1.969294 -0.683537 0.141931 -0.984178 -0.176036 0.020119 0.750000 1.000000
-1.969937 -0.681298 0.132206 -0.984178 -0.176036 0.020119 0.750000 1.000000
-1.913010 -1.007366 0.061814 -0.984178 -0.176036 0.020119 0.500000 1.000000
0.407633 -0.224986 0.133366 0.176542 0.179874 0.967718 0.850082 0.000000
0.380948 -0.321546 0.161046 0.176542 0.179874 0.967718 0.925041 0.000000
0.954030 -0.868056 0.153217 0.176542 0.179874 0.967718 0.837521 0.500000
1.102028 -0.714352 0.102511 0.176542 0.179874 0.967718 0.675041 0.500000
0.380948 -0.321546 0.161046 0.204283 0.198928 0.958486 0.925041 0.000000
0.480553 -0.550732 0.188271 0.204283 0.198928 0.958486 1.000000 0.000000
0.793687 -0.979310 0.209594 0.204283 0.198928 0.958486 1.000000 0.500000
0.954030 -0.868056 0.153217 0.204283 0.198928 0.958486 0.837521 0.500000
0.954030 -0.868056 0.153217 0.198028 0.191463 0.961315 0.837521 0.500000
0.793687 -0.979310 0.209594 0.198028 0.191463 0.961315 1.000000 0.500000
1.193122 -1.352527 0.200456 0.198028 0.191463 0.961315 1.000000 1.000000
1.536906 -1.408284 0.141931 0.198028 0.191463 0.961315 0.750000 1.000000
1.102028 -0.714352 0.102511 0.155386 0.152819 0.975962 0.675041 0.500000
0.954030 -0.868056 0.153217 0.155386 0.152819 0.975962 0.837521 0.500000
1.536906 -1.408284 0.141931 0.155386 0.152819 0.975962 0.750000 1.000000
1.796422 -1.203717 0.071656 0.155386 0.152819 0.975962 0.500000 1.000000
0.751666 -0.157093 0.074187 0.091422 0.100484 0.990729 0.700165 0.000000
0.487265 -0.161170 0.105144 0.091422 0.100484 0.990729 0.775123 0.000000
1.214356 -0.502377 0.066512 0.091422 0.100484 0.990729 0.512562 0.500000
1.299673 -0.268554 0.041068 0.091422 0.100484 0.990729 0.350082 0.500000
0.487265 -0.161170 0.105144 0.129092 0.138790 0.981872 0.775123 0.000000
0.407633 -0.224986 0.133366 0.129092 0.138790 0.981872 0.850082 0.000000
1.102028 -0.714352 0.102511 0.129092 0.138790 0.981872 0.675041 0.500000
1.214356 -0.502377 0.066512 0.129092 0.138790 0.981872 0.512562 0.500000
1.214356 -0.502377 0.066512 0.102798 0.092580 0.990385 0.512562 0.500000
1.102028 -0.714352 0.102511 0.102798 0.092580 0.990385 0.675041 0.500000
1.796422 -1.203717 0.071656 0.102798 0.092580 0.990385 0.500000 1.000000
1.936575 -0.857904 0.029308 0.102798 0.092580 0.990385 0.250000 1.000000
1.299673 -0.268554 0.041068 0.077895 0.064327 0.994884 0.350082 0.500000
1.214356 -0.502377 0.066512 0.077895 0.064327 0.994884 0.512562 0.500000
1.936575 -0.857904 0.029308 0.077895 0.064327 0.994884 0.250000 1.000000
1.804733 -0.506205 0.020535 0.077895 0.064327 0.994884 0.000000 1.000000
0.406108 -0.226577 0.123612 -0.176498 -0.179829 -0.967734 0.850082 0.000000
1.100627 -0.715748 0.092709 -0.176498 -0.179829 -0.967734 0.675041 0.500000
0.952195 -0.869863 0.143554 -0.176498 -0.179829 -0.967734 0.837521 0.500000
0.379135 -0.323377 0.151384 -0.176498 -0.179829 -0.967734 0.925041 0.000000
0.379135 -0.323377 0.151384 -0.204263 -0.198911 -0.958494 0.925041 0.000000
0.952195 -0.869863 0.143554 -0.204263 -0.198911 -0.958494 0.837521 0.500000
0.791673 -0.981265 0.199996 -0.204263 -0.198911 -0.958494 1.000000 0.500000
0.478510 -0.552722 0.178686 -0.204263 -0.198911 -0.958494 1.000000 0.000000
0.952195 -0.869863 0.143554 -0.198008 -0.191451 -0.961322 0.837521 0.500000
1.535241 -1.409912 0.132206 -0.198008 -0.191451 -0.961322 0.750000 1.000000
1.191142 -1.354441 0.190843 -0.198008 -0.191451 -0.961322 1.000000 1.000000
0.791673 -0.981265 0.199996 -0.198008 -0.191451 -0.961322 1.000000 0.500000
1.100627 -0.715748 0.092709 -0.155385 -0.152818 -0.975962 0.675041 0.500000
1.795137 -1.204938 0.061814 -0.155385 -0.152818 -0.975962 0.500000 1.000000
1.535241 -1.409912 0.132206 -0.155385 -0.152818 -0.975962 0.750000 1.000000
0.952195 -0.869863 0.143554 -0.155385 -0.152818 -0.975962 0.837521 0.500000
0.750752 -0.158097 0.064280 -0.091434 -0.100501 -0.990727 0.700165 0.000000
1.298828 -0.269374 0.031138 -0.091434 -0.100501 -0.990727 0.350082 0.500000
1.213358 -0.503358 0.056610 -0.091434 -0.100501 -0.990727 0.512562 0.500000
0.486043 -0.162487 0.095307 -0.091434 -0.100501 -0.990727 0.775123 0.000000
0.486043 -0.162487 0.095307 -0.129077 -0.138773 -0.981876 0.775123 0.000000
1.213358 -0.503358 0.056610 -0.129077 -0.138773 -0.981876 0.512562 0.500000
1.100627 -0.715748 0.092709 -0.129077 -0.138773 -0.981876 0.675041 0.500000
0.406108 -0.226577 0.123612 -0.129077 -0.138773 -0.981876 0.850082 0.000000
1.213358 -0.503358 0.056610 -0.102824 -0.092613 -0.990379 0.512562 0.500000
1.935626 -0.858741 0.019388 -0.102824 -0.092613 -0.990379 0.250000 1.000000
1.795137 -1.204938 0.061814 -0.102824 -0.092613 -0.990379 0.500000 1.000000
1.100627 -0.715748 0.092709 -0.102824 -0.092613 -0.990379 0.675041 0.500000
1.298828 -0.269374 0.031138 -0.077909 -0.064345 -0.994882 0.350082 0.500000
1.803955 -0.506849 0.010586 -0.077909 -0.064345 -0.994882 0.000000 1.000000
1.935626 -0.858741 0.019388 -0.077909 -0.064345 -0.994882 0.250000 1.000000
1.213358 -0.503358 0.056610 -0.077909 -0.064345 -0.994882 0.512562 0.500000
1.299673 -0.268554 0.041068 0.420090 0.901879 -0.100690 0.350082 0.500000
1.804733 -0.506205 0.020535 0.420090 0.901879 -0.100690 0.000000 1.000000
1.803955 -0.506849 0.010586 0.420090 0.901879 -0.100690 0.000000 1.000000
1.298828 -0.269374 0.031138 0.420090 0.901879 -0.100690 0.350082 0.500000
0.751666 -0.157093 0.074187 0.191804 0.975611 -0.106741 0.700165 0.000000
1.299673 -0.268554 0.041068 0.191804 0.975611 -0.106741 0.350082 0.500000
1.298828 -0.269374 0.031138 0.191804 0.975611 -0.106741 0.350082 0.500000
0.750752 -0.158097 0.064280 0.191804 0.975611 -0.106741 0.700165 0.000000
0.380948 -0.321546 0.161046 -0.948952 0.295201 0.111112 0.925041 0.000000
0.407633 -0.224986 0.133366 -0.948952 0.295201 0.111112 0.850082 0.000000
0.406108 -0.226577 0.123612 -0.948952 0.295201 0.111112 0.850082 0.000000
0.379135 -0.323377 0.151384 -0.948952 0.295201 0.111112 0.925041 0.000000
0.480553 -0.550732 0.188271 -0.898444 -0.359982 0.251420 1.000000 0.000000
0.380948 -0.321546 0.161046 -0.898444 -0.359982 0.251420 0.925041 0.000000
0.379135 -0.323377 0.151384 -0.898444 -0.359982 0.251420 0.925041 0.000000
0.478510 -0.552722 0.178686 -0.898444 -0.359982 0.251420 1.000000 0.000000
0.793687 -0.979310 0.209594 -0.781725 -0.557283 0.279897 1.000000 0.500000
0.480553 -0.550732 0.188271 -0.781725 -0.557283 0.279897 1.000000 0.000000
0.478510 -0.552722 0.178686 -0.781725 -0.557283 0.279897 1.000000 0.000000
0.791673 -0.981265 0.199996 -0.781725 -0.557283 0.279897 1.000000 0.500000
1.193122 -1.352527 0.200456 -0.652436 -0.705142 0.277672 1.000000 1.000000
0.793687 -0.979310 0.209594 -0.652436 -0.705142 0.277672 1.000000 0.500000
0.791673 -0.981265 0.199996 -0.652436 -0.705142 0.277672 1.000000 0.500000
1.191142 -1.354441 0.190843 -0.652436 -0.705142 0.277672 1.000000 1.000000
1.936575 -0.857904 0.029308 0.921989 -0.381808 -0.064494 0.250000 1.000000
1.796422 -1.203717 0.071656 0.921989 -0.381808 -0.064494 0.500000 1.000000
1.795137 -1.204938 0.061814 0.921989 -0.381808 -0.064494 0.500000 1.000000
1.935626 -0.858741 0.019388 0.921989 -0.381808 -0.064494 0.250000 1.000000
1.804733 -0.506205 0.020535 0.931989 0.346384 -0.106838 0.000000 1.000000
1.936575 -0.857904 0.029308 0.931989 0.346384 -0.106838 0.250000 1.000000
1.935626 -0.858741 0.019388 0.931989 0.346384 -0.106838 0.250000 1.000000
1.803955 -0.506849 0.010586 0.931989 0.346384 -0.106838 0.000000 1.000000
0.487265 -0.161170 0.105144 -0.029202 0.993094 -0.113629 0.775123 0.000000
0.751666 -0.157093 0.074187 -0.029202 0.993094 -0.113629 0.700165 0.000000
0.750752 -0.158097 0.064280 -0.029202 0.993094 -0.113629 0.700165 0.000000
0.486043 -0.162487 0.095307 -0.029202 0.993094 -0.113629 0.775123 0.000000
0.407633 -0.224986 0.133366 -0.630954 0.775363 -0.026620 0.850082 0.000000
0.487265 -0.161170 0.105144 -0.630954 0.775363 -0.026620 0.775123 0.000000
0.486043 -0.162487 0.095307 -0.630954 0.775363 -0.026620 0.775123 0.000000
0.406108 -0.226577 0.123612 -0.630954 0.775363 -0.026620 0.850082 0.000000
1.536906 -1.408284 0.141931 -0.122867 -0.971810 0.201217 0.750000 1.000000
1.193122 -1.352527 0.200456 -0.122867 -0.971810 0.201217 1.000000 1.000000
1.191142 -1.354441 0.190843 -0.122867 -0.971810 0.201217 1.000000 1.000000
1.535241 -1.409912 0.132206 -0.122867 -0.971810 0.201217 0.750000 1.000000
1.796422 -1.203717 0.071656 0.622384 -0.782454 0.020103 0.500000 1.000000
1.536906 -1.408284 0.141931 0.622384 -0.782454 0.020103 0.750000 1.000000
1.535241 -1.409912 0.132206 0.622384 -0.782454 0.020103 0.750000 1.000000
1.795137 -1.204938 0.061814 0.622384 -0.782454 0.020103 0.500000 1.000000
4 0 1 2 3
4 4 5 6 7
4 8 9 10 11
4 12 13 14 15
4 16 17 18 19
4 20 21 22 23
4 24 25 26 27
4 28 29 30 31
4 32 33 34 35
4 36 37 38 39
4 40 41 42 43
4 44 45 46 47
4 48 49 50 51
4 52 53 54 55
4 56 57 58 59
4 60 61 62 63
4 64 65 66 67
4 68 69 70 71
4 72 73 74 75
4 76 77 78 79
4 80 81 82 83
4 84 85 86 87
4 88 89 90 91
4 92 93 94 95
4 96 97 98 99
4 100 101 102 103
4 104 105 106 107
4 108 109 110 111
4 112 113 114 115
4 116 117 118 119
4 120 121 122 123
4 124 125 126 127
4 128 129 130 131
4 132 133 134 135
4 136 137 138 139
4 140 141 142 143
4 144 145 146 147
4 148 149 150 151
4 152 153 154 155
4 156 157 158 159
4 160 161 162 163
4 164 165 166 167
4 168 169 170 171
4 172 173 174 175
4 176 177 178 179
4 180 181 182 183
4 184 185 186 187
4 188 189 190 191
4 192 193 194 195
4 196 197 198 199
4 200 201 202 203
4 204 205 206 207
4 208 209 210 211
4 212 213 214 215
4 216 217 218 219
4 220 221 222 223
4 224 225 226 227
4 228 229 230 231
4 232 233 234 235
4 236 237 238 239
4 240 241 242 243
4 244 245 246 247
4 248 249 250 251
4 252 253 254 255
4 256 257 258 259
4 260 261 262 263
4 264 265 266 267
4 268 269 270 271
4 272 273 274 275
4 276 277 278 279
4 280 281 282 283
4 284 285 286 287
4 288 289 290 291
4 292 293 294 295
4 296 297 298 299
4 300 301 302 303
4 304 305 306 307
4 308 309 310 311
4 312 313 314 315
4 316 317 318 319
4 320 321 322 323
4 324 325 326 327
4 328 329 330 331
4 332 333 334 335
