ply
format ascii 1.0
comment Created by Blender 2.81 (sub 16) - www.blender.org, source file: 'tv.blend'
element vertex 592
property float x
property float y
property float z
property float nx
property float ny
property float nz
property float s
property float t
element face 231
property list uchar uint vertex_indices
end_header
1.657665 0.661059 -0.006816 0.272145 0.000000 -0.962256 0.987974 0.500000
1.679928 0.155783 -0.000520 0.272145 0.000000 -0.962256 0.998018 0.998671
1.657634 0.373559 -0.006825 0.272145 0.000000 -0.962256 0.987974 0.750000
1.665525 1.229623 -0.004665 0.264062 -0.000002 -0.964506 0.989018 0.000065
1.657634 0.948559 -0.006825 0.264062 -0.000002 -0.964506 0.987974 0.250000
1.657575 1.200673 -0.006842 0.264062 -0.000002 -0.964506 0.987974 0.030770
1.657576 0.124813 -0.006841 0.272144 -0.000000 -0.962257 0.987974 0.966301
1.679928 0.155783 -0.000520 0.272144 -0.000000 -0.962257 0.998018 0.998671
1.657567 0.086059 -0.006844 0.272144 -0.000000 -0.962257 0.987974 1.000000
0.899582 1.210603 -0.207836 0.166970 -0.000001 -0.985962 0.622838 0.042046
1.198083 1.210559 -0.157286 0.166970 -0.000001 -0.985962 0.771801 0.042046
0.899570 0.115021 -0.207837 0.166970 -0.000001 -0.985962 0.622838 0.955031
1.510417 0.101498 -0.048460 0.263158 0.058345 -0.962987 0.914325 0.966301
1.602076 0.062281 -0.025789 0.263158 0.058345 -0.962987 0.959683 1.000000
1.357173 0.101498 -0.090338 0.263158 0.058345 -0.962987 0.837704 0.966300
1.157713 0.101498 -0.136510 0.159260 0.098676 -0.982293 0.737974 0.966300
0.992798 0.061059 -0.167310 0.159260 0.098676 -0.982293 0.655195 1.000000
0.927442 0.101498 -0.173844 0.159260 0.098676 -0.982293 0.622838 0.966300
0.899570 0.115021 -0.207837 0.063936 -0.000000 -0.997954 0.622838 0.955031
0.681766 0.361059 -0.221791 0.063936 -0.000000 -0.997954 0.511254 0.750000
0.681766 0.661059 -0.221792 0.063936 -0.000000 -0.997954 0.511255 0.500000
0.681766 0.961059 -0.221792 0.063936 -0.000000 -0.997954 0.511255 0.250000
1.665525 1.229623 -0.004665 0.943740 0.011382 -0.330494 0.989018 0.000065
1.674496 1.165106 0.018728 0.943740 0.011382 -0.330494 0.998039 0.001476
1.679928 0.155783 -0.000520 0.943740 0.011382 -0.330494 0.998018 0.998671
1.602076 0.062281 -0.025789 0.012720 -0.998854 -0.046136 0.959683 1.000000
1.231795 0.061059 -0.101416 0.012720 -0.998854 -0.046136 0.776862 1.000000
0.992798 0.061059 -0.167310 0.012720 -0.998854 -0.046136 0.655195 1.000000
0.992798 1.261059 -0.167310 0.000123 1.000000 -0.000445 0.655195 0.000000
0.809992 1.261081 -0.167905 0.000123 1.000000 -0.000445 0.564488 0.000000
1.231794 1.261059 -0.101416 0.000123 1.000000 -0.000445 0.776862 0.000000
1.602034 1.259853 -0.025803 -0.005719 0.999018 0.043935 0.959661 0.000000
1.231794 1.261059 -0.101416 -0.005719 0.999018 0.043935 0.776862 0.000000
1.599396 1.258822 -0.002691 -0.005719 0.999018 0.043935 0.961487 0.000000
0.681766 0.115030 -0.221791 0.063936 0.000000 -0.997954 0.511254 0.955024
1.657634 0.373559 -0.006825 0.272143 -0.000000 -0.962257 0.987974 0.750000
1.679928 0.155783 -0.000520 0.272143 -0.000000 -0.962257 0.998018 0.998671
1.657576 0.124813 -0.006841 0.272143 -0.000000 -0.962257 0.987974 0.966301
1.653531 1.200668 0.006095 -0.688053 -0.153701 0.709196 0.987974 0.030774
1.674496 1.165106 0.018728 -0.688053 -0.153701 0.709196 0.998039 0.001476
1.652124 1.236059 0.012401 -0.688053 -0.153701 0.709196 0.987974 0.000000
1.602034 1.259853 -0.025803 0.263064 -0.064119 -0.962645 0.959661 0.000000
1.510417 1.224135 -0.048461 0.263064 -0.064119 -0.962645 0.914325 0.030770
1.357173 1.224135 -0.090338 0.263064 -0.064119 -0.962645 0.837704 0.030770
0.992798 1.261059 -0.167310 0.159106 -0.107966 -0.981340 0.655195 0.000000
1.157713 1.224135 -0.136510 0.159106 -0.107966 -0.981340 0.737974 0.030770
0.927442 1.224135 -0.173844 0.159106 -0.107966 -0.981340 0.622838 0.030770
0.928608 1.224135 -0.169765 -0.168678 -0.005599 0.985655 0.622838 0.030770
1.059052 0.101261 -0.153820 -0.168678 -0.005599 0.985655 0.687904 0.966300
1.232017 1.224135 -0.117842 -0.168678 -0.005599 0.985655 0.775280 0.030770
1.232017 1.224135 -0.117842 -0.258424 -0.000044 0.966032 0.775280 0.030770
1.600926 0.103109 -0.019206 -0.258424 -0.000044 0.966032 0.960517 0.966301
1.600975 1.222510 -0.019142 -0.258424 -0.000044 0.966032 0.960548 0.030770
1.059052 0.101261 -0.153820 -0.241110 0.006045 0.970479 0.687904 0.966300
1.600926 0.103109 -0.019206 -0.241110 0.006045 0.970479 0.960517 0.966301
1.232017 1.224135 -0.117842 -0.241110 0.006045 0.970479 0.775280 0.030770
1.657665 0.661059 -0.006816 0.000000 0.000000 0.000000 0.987974 0.500000
1.657634 0.948559 -0.006825 0.000000 0.000000 0.000000 0.987974 0.250000
1.657665 0.661059 -0.006816 0.000000 0.000000 0.000000 0.987974 0.500000
1.657634 0.373559 -0.006825 0.000000 0.000000 0.000000 0.987974 0.750000
1.657634 0.373559 -0.006825 0.000000 0.000000 0.000000 0.987974 0.750000
1.657634 0.948559 -0.006825 0.000000 0.000000 0.000000 0.987974 0.250000
1.657575 1.200673 -0.006842 0.000000 0.000000 0.000000 0.987974 0.030770
1.657576 0.124813 -0.006841 0.000000 0.000000 0.000000 0.987974 0.966301
1.657576 0.124813 -0.006841 0.000000 0.000000 0.000000 0.987974 0.966301
0.681766 0.101498 -0.189207 0.000000 0.000000 0.000000 0.500000 0.966300
0.927442 0.101498 -0.173844 0.000000 0.000000 0.000000 0.622838 0.966300
0.681766 0.101498 -0.189207 0.000000 0.000000 0.000000 0.500000 0.966300
0.927442 0.101498 -0.173844 0.000000 0.000000 0.000000 0.622838 0.966300
1.157713 0.101498 -0.136510 0.000000 0.000000 0.000000 0.737974 0.966300
1.157713 0.101498 -0.136510 0.000000 0.000000 0.000000 0.737974 0.966300
1.357173 0.101498 -0.090338 0.000000 0.000000 0.000000 0.837704 0.966300
1.357173 0.101498 -0.090338 0.000000 0.000000 0.000000 0.837704 0.966300
1.510417 0.101498 -0.048460 0.000000 0.000000 0.000000 0.914325 0.966301
1.510417 0.101498 -0.048460 0.000000 0.000000 0.000000 0.914325 0.966301
1.607156 0.104412 -0.021101 0.000000 0.000000 0.000000 0.962704 0.966300
1.607156 0.104412 -0.021101 0.000000 0.000000 0.000000 0.962704 0.966300
1.510417 1.224135 -0.048461 0.000000 0.000000 0.000000 0.914325 0.030770
1.357173 1.224135 -0.090338 0.000000 0.000000 0.000000 0.837704 0.030770
1.510417 1.224135 -0.048461 0.000000 0.000000 0.000000 0.914325 0.030770
1.357173 1.224135 -0.090338 0.000000 0.000000 0.000000 0.837704 0.030770
1.157713 1.224135 -0.136510 0.000000 0.000000 0.000000 0.737974 0.030770
1.157713 1.224135 -0.136510 0.000000 0.000000 0.000000 0.737974 0.030770
0.927442 1.224135 -0.173844 0.000000 0.000000 0.000000 0.622838 0.030770
0.927442 1.224135 -0.173844 0.000000 0.000000 0.000000 0.622838 0.030770
0.681766 1.224135 -0.189207 0.000000 0.000000 0.000000 0.500000 0.030770
1.657575 1.200673 -0.006842 0.000000 0.000000 0.000000 0.987974 0.030770
1.607156 1.221202 -0.021101 0.000000 0.000000 0.000000 0.962704 0.030770
1.607156 1.221202 -0.021101 0.000000 0.000000 0.000000 0.962704 0.030770
1.595605 1.205528 -0.051611 0.585489 0.000038 -0.810680 0.968064 0.043486
1.657634 0.948559 -0.006825 0.585489 0.000038 -0.810680 0.987974 0.250000
1.657665 0.661059 -0.006816 0.585489 0.000038 -0.810680 0.987974 0.500000
1.596101 0.120088 -0.051297 0.585986 -0.000083 -0.810321 0.968312 0.952780
1.657634 0.373559 -0.006825 0.585986 -0.000083 -0.810321 0.987974 0.750000
1.657576 0.124813 -0.006841 0.585986 -0.000083 -0.810321 0.987974 0.966301
1.198083 1.210559 -0.157286 0.094692 0.907580 -0.409063 0.771801 0.042046
1.157713 1.224135 -0.136510 0.094692 0.907580 -0.409063 0.737974 0.030770
1.357173 1.224135 -0.090338 0.094692 0.907580 -0.409063 0.837704 0.030770
1.595605 1.205528 -0.051611 0.167131 0.849833 -0.499852 0.968064 0.043486
1.510417 1.224135 -0.048461 0.167131 0.849833 -0.499852 0.914325 0.030770
1.607156 1.221202 -0.021101 0.167131 0.849833 -0.499852 0.962704 0.030770
-0.294102 0.948559 -0.006825 -0.267035 -0.000001 -0.963687 0.987974 0.250000
-0.301878 1.229613 -0.004671 -0.267035 -0.000001 -0.963687 0.989017 0.000056
-0.294044 1.200673 -0.006842 -0.267035 -0.000001 -0.963687 0.987974 0.030770
-0.238982 0.062389 -0.025381 -0.263258 0.051439 -0.963353 0.959942 1.000000
-0.146885 0.101498 -0.048460 -0.263258 0.051439 -0.963353 0.914325 0.966301
0.006359 0.101498 -0.090338 -0.263258 0.051439 -0.963353 0.837704 0.966300
0.370734 0.061059 -0.167310 -0.159260 0.098676 -0.982293 0.655195 1.000000
0.205818 0.101498 -0.136510 -0.159260 0.098676 -0.982293 0.737974 0.966300
0.436089 0.101498 -0.173844 -0.159260 0.098676 -0.982293 0.622838 0.966300
0.681766 0.361059 -0.221791 -0.063936 -0.000000 -0.997954 0.511254 0.750000
0.463962 0.115021 -0.207837 -0.063936 -0.000000 -0.997954 0.622838 0.955031
0.681766 0.661059 -0.221792 -0.063936 -0.000000 -0.997954 0.511255 0.500000
0.681766 0.961059 -0.221792 -0.063936 -0.000000 -0.997954 0.511255 0.250000
-0.310964 1.165106 0.018728 0.607567 0.005397 0.794250 0.998035 0.001788
-0.295943 0.090803 0.014538 0.607567 0.005397 0.794250 0.988758 0.999945
-0.289338 0.124814 0.009254 0.607567 0.005397 0.794250 0.987974 0.966294
-0.310964 1.165106 0.018728 -0.942368 0.011448 -0.334382 0.998035 0.001788
-0.301878 1.229613 -0.004671 -0.942368 0.011448 -0.334382 0.989017 0.000056
-0.316396 0.155782 -0.000520 -0.942368 0.011448 -0.334382 0.998018 0.998671
0.131737 0.061059 -0.101416 -0.013994 -0.998613 -0.050755 0.776862 1.000000
-0.238982 0.062389 -0.025381 -0.013994 -0.998613 -0.050755 0.959942 1.000000
0.370734 0.061059 -0.167310 -0.013994 -0.998613 -0.050755 0.655195 1.000000
-0.238503 1.259853 -0.025803 -0.012546 0.998885 -0.045506 0.959661 0.000000
0.131737 1.261059 -0.101416 -0.012546 0.998885 -0.045506 0.776862 0.000000
0.370734 1.261059 -0.167310 -0.012546 0.998885 -0.045506 0.655195 0.000000
0.681766 0.115030 -0.221791 -0.063936 0.000000 -0.997954 0.511254 0.955024
-0.310964 1.165106 0.018728 0.688447 -0.153863 0.708778 0.998035 0.001788
-0.290018 1.200660 0.006101 0.688447 -0.153863 0.708778 0.987974 0.030778
-0.288593 1.236059 0.012401 0.688447 -0.153863 0.708778 0.987974 0.000000
-0.237394 0.103109 -0.019206 0.240979 0.006105 0.970511 0.960517 0.966301
0.304302 0.101260 -0.153698 0.240979 0.006105 0.970511 0.687996 0.966301
0.136593 1.224135 -0.119119 0.240979 0.006105 0.970511 0.772717 0.030770
0.681766 1.224135 -0.189207 0.000000 0.000000 0.000000 0.500000 0.030770
0.681766 0.961059 -0.189207 0.000000 0.000000 0.000000 0.500000 0.250000
0.681766 0.961059 -0.189207 0.000000 0.000000 0.000000 0.500000 0.250000
0.681766 0.661059 -0.189207 0.000000 0.000000 0.000000 0.500000 0.500000
0.681766 0.661059 -0.189207 0.000000 0.000000 0.000000 0.500000 0.500000
0.681766 0.361059 -0.189207 0.000000 0.000000 0.000000 0.500000 0.750000
0.681766 0.361059 -0.189207 0.000000 0.000000 0.000000 0.500000 0.750000
-0.294133 0.661058 -0.006816 0.000000 0.000000 0.000000 0.987974 0.500000
-0.294102 0.948559 -0.006825 0.000000 0.000000 0.000000 0.987974 0.250000
-0.294102 0.948559 -0.006825 0.000000 0.000000 0.000000 0.987974 0.250000
-0.294102 0.373558 -0.006825 0.000000 0.000000 0.000000 0.987974 0.750000
-0.294133 0.661058 -0.006816 0.000000 0.000000 0.000000 0.987974 0.500000
-0.294044 1.200673 -0.006842 0.000000 0.000000 0.000000 0.987974 0.030770
-0.294044 1.200673 -0.006842 0.000000 0.000000 0.000000 0.987974 0.030770
-0.294044 0.124813 -0.006841 0.000000 0.000000 0.000000 0.987974 0.966301
-0.294102 0.373558 -0.006825 0.000000 0.000000 0.000000 0.987974 0.750000
0.436089 0.101498 -0.173844 0.000000 0.000000 0.000000 0.622838 0.966300
0.436089 0.101498 -0.173844 0.000000 0.000000 0.000000 0.622838 0.966300
0.205818 0.101498 -0.136510 0.000000 0.000000 0.000000 0.737974 0.966300
0.205818 0.101498 -0.136510 0.000000 0.000000 0.000000 0.737974 0.966300
0.006359 0.101498 -0.090338 0.000000 0.000000 0.000000 0.837704 0.966300
0.006359 0.101498 -0.090338 0.000000 0.000000 0.000000 0.837704 0.966300
-0.146885 0.101498 -0.048460 0.000000 0.000000 0.000000 0.914325 0.966301
-0.146885 0.101498 -0.048460 0.000000 0.000000 0.000000 0.914325 0.966301
-0.243624 0.104412 -0.021101 0.000000 0.000000 0.000000 0.962704 0.966300
-0.243624 0.104412 -0.021101 0.000000 0.000000 0.000000 0.962704 0.966300
-0.294044 0.124813 -0.006841 0.000000 0.000000 0.000000 0.987974 0.966301
-0.146885 1.224135 -0.048461 0.000000 0.000000 0.000000 0.914325 0.030770
0.006358 1.224135 -0.090338 0.000000 0.000000 0.000000 0.837704 0.030770
0.006358 1.224135 -0.090338 0.000000 0.000000 0.000000 0.837704 0.030770
0.205818 1.224135 -0.136510 0.000000 0.000000 0.000000 0.737974 0.030770
0.205818 1.224135 -0.136510 0.000000 0.000000 0.000000 0.737974 0.030770
0.436089 1.224135 -0.173844 0.000000 0.000000 0.000000 0.622838 0.030770
0.436089 1.224135 -0.173844 0.000000 0.000000 0.000000 0.622838 0.030770
-0.243624 1.221202 -0.021101 0.000000 0.000000 0.000000 0.962704 0.030770
-0.243624 1.221202 -0.021101 0.000000 0.000000 0.000000 0.962704 0.030770
-0.146885 1.224135 -0.048461 0.000000 0.000000 0.000000 0.914325 0.030770
1.602076 0.062281 -0.025789 0.269314 0.074358 -0.960177 0.959683 1.000000
1.510417 0.101498 -0.048460 0.269314 0.074358 -0.960177 0.914325 0.966301
1.607156 0.104412 -0.021101 0.269314 0.074358 -0.960177 0.962704 0.966300
1.198083 1.210559 -0.157286 0.164977 0.000558 -0.986297 0.771801 0.042046
1.185199 0.115074 -0.160060 0.164977 0.000558 -0.986297 0.765381 0.955024
0.899570 0.115021 -0.207837 0.164977 0.000558 -0.986297 0.622838 0.955031
1.652871 0.124719 0.009259 -0.512573 0.002839 0.858639 0.987974 0.966288
1.674496 1.165106 0.018728 -0.512573 0.002839 0.858639 0.998039 0.001476
1.653531 1.200668 0.006095 -0.512573 0.002839 0.858639 0.987974 0.030774
1.674496 1.165106 0.018728 -0.402844 0.000043 0.915268 0.998039 0.001476
1.652871 0.124719 0.009259 -0.402844 0.000043 0.915268 0.987974 0.966288
1.674194 0.155760 0.018643 -0.402844 0.000043 0.915268 0.998027 0.999299
1.652871 0.124719 0.009259 -0.496569 0.079829 0.864318 0.987974 0.966288
1.652124 0.086059 0.012401 -0.496569 0.079829 0.864318 0.987974 1.000000
1.674194 0.155760 0.018643 -0.496569 0.079829 0.864318 0.998027 0.999299
1.054207 0.101396 -0.138066 -0.151651 0.209925 0.965885 0.687208 0.966300
0.807860 0.061052 -0.167976 -0.151651 0.209925 0.965885 0.563414 1.000000
1.231795 0.061059 -0.101416 -0.151651 0.209925 0.965885 0.776862 1.000000
1.653531 1.200668 0.006095 -0.357798 -0.931783 -0.061329 0.987974 0.030774
1.599403 1.222035 -0.002767 -0.357798 -0.931783 -0.061329 0.961484 0.030770
1.600975 1.222510 -0.019142 -0.357798 -0.931783 -0.061329 0.960548 0.030770
1.679928 0.155783 -0.000520 0.958028 -0.000311 0.286674 0.998018 0.998671
1.674496 1.165106 0.018728 0.958028 -0.000311 0.286674 0.998039 0.001476
1.674194 0.155760 0.018643 0.958028 -0.000311 0.286674 0.998027 0.999299
1.602076 0.062281 -0.025789 -0.005545 -0.999047 0.043295 0.959683 1.000000
1.599398 0.063297 -0.002691 -0.005545 -0.999047 0.043295 0.961488 1.000000
1.231795 0.061059 -0.101416 -0.005545 -0.999047 0.043295 0.776862 1.000000
0.992798 0.061059 -0.167310 0.000039 -1.000000 -0.000141 0.655195 1.000000
1.231795 0.061059 -0.101416 0.000039 -1.000000 -0.000141 0.776862 1.000000
0.807860 0.061052 -0.167976 0.000039 -1.000000 -0.000141 0.563414 1.000000
1.602034 1.259853 -0.025803 0.012546 0.998885 -0.045505 0.959661 0.000000
0.992798 1.261059 -0.167310 0.012546 0.998885 -0.045505 0.655195 0.000000
1.231794 1.261059 -0.101416 0.012546 0.998885 -0.045505 0.776862 0.000000
1.510417 1.224135 -0.048461 0.268968 -0.081114 -0.959727 0.914325 0.030770
1.602034 1.259853 -0.025803 0.268968 -0.081114 -0.959727 0.959661 0.000000
1.607156 1.221202 -0.021101 0.268968 -0.081114 -0.959727 0.962704 0.030770
0.681766 0.101498 -0.185004 -0.082367 0.004583 0.996592 0.500000 0.966300
1.059052 0.101261 -0.153820 -0.082367 0.004583 0.996592 0.687904 0.966300
0.928608 1.224135 -0.169765 -0.082367 0.004583 0.996592 0.622838 0.030770
0.550536 1.224135 -0.183676 -0.036769 -0.005480 0.999309 0.565098 0.030770
0.681766 0.101498 -0.185004 -0.036769 -0.005480 0.999309 0.500000 0.966300
0.928608 1.224135 -0.169765 -0.036769 -0.005480 0.999309 0.622838 0.030770
1.595605 1.205528 -0.051611 0.585612 0.000083 -0.810592 0.968064 0.043486
1.657575 1.200673 -0.006842 0.585612 0.000083 -0.810592 0.987974 0.030770
1.657634 0.948559 -0.006825 0.585612 0.000083 -0.810592 0.987974 0.250000
1.185199 0.115074 -0.160060 0.095231 -0.906473 -0.411386 0.765381 0.955024
1.357173 0.101498 -0.090338 0.095231 -0.906473 -0.411386 0.837704 0.966300
1.157713 0.101498 -0.136510 0.095231 -0.906473 -0.411386 0.737974 0.966300
1.607156 0.104412 -0.021101 0.442500 -0.719367 -0.535448 0.962704 0.966300
1.596101 0.120088 -0.051297 0.442500 -0.719367 -0.535448 0.968312 0.952780
1.657576 0.124813 -0.006841 0.442500 -0.719367 -0.535448 0.987974 0.966301
1.596101 0.120088 -0.051297 0.167494 -0.848588 -0.501841 0.968312 0.952780
1.607156 0.104412 -0.021101 0.167494 -0.848588 -0.501841 0.962704 0.966300
1.510417 0.101498 -0.048460 0.167494 -0.848588 -0.501841 0.914325 0.966301
-0.294133 0.661058 -0.006816 -0.272143 -0.000000 -0.962257 0.987974 0.500000
-0.294102 0.373558 -0.006825 -0.272143 -0.000000 -0.962257 0.987974 0.750000
-0.316396 0.155782 -0.000520 -0.272143 -0.000000 -0.962257 0.998018 0.998671
-0.294044 0.124813 -0.006841 -0.272144 -0.000000 -0.962257 0.987974 0.966301
-0.294035 0.086058 -0.006844 -0.272144 -0.000000 -0.962257 0.987974 1.000000
-0.316396 0.155782 -0.000520 -0.272144 -0.000000 -0.962257 0.998018 0.998671
0.463962 0.115021 -0.207837 -0.166120 -0.000166 -0.986106 0.622838 0.955031
0.172221 0.115048 -0.158691 -0.166120 -0.000166 -0.986106 0.768436 0.955024
0.171632 1.210482 -0.158776 -0.166120 -0.000166 -0.986106 0.768701 0.042046
0.463949 1.210603 -0.207836 -0.165516 -0.000001 -0.986207 0.622838 0.042046
0.463962 0.115021 -0.207837 -0.165516 -0.000001 -0.986207 0.622838 0.955031
0.171632 1.210482 -0.158776 -0.165516 -0.000001 -0.986207 0.768701 0.042046
-0.290018 1.200660 0.006101 0.512744 0.002840 0.858537 0.987974 0.030778
-0.310964 1.165106 0.018728 0.512744 0.002840 0.858537 0.998035 0.001788
-0.289338 0.124814 0.009254 0.512744 0.002840 0.858537 0.987974 0.966294
0.550536 1.224135 -0.183676 0.000906 -0.999983 0.005804 0.565098 0.030770
0.309648 1.224181 -0.138115 0.000906 -0.999983 0.005804 0.687046 0.030770
0.136593 1.224135 -0.119119 0.000906 -0.999983 0.005804 0.772717 0.030770
-0.236447 1.222215 -0.008168 -0.002584 -0.999659 -0.025983 0.961175 0.030770
0.136593 1.224135 -0.119119 -0.002584 -0.999659 -0.025983 0.772717 0.030770
0.309648 1.224181 -0.138115 -0.002584 -0.999659 -0.025983 0.687046 0.030770
-0.289338 0.124814 0.009254 0.356715 0.932288 -0.059956 0.987974 0.966294
-0.235873 0.103584 -0.002766 0.356715 0.932288 -0.059956 0.961485 0.966301
-0.237394 0.103109 -0.019206 0.356715 0.932288 -0.059956 0.960517 0.966301
0.438316 0.061059 -0.153968 0.167040 0.149971 0.974477 0.622838 1.000000
0.309334 0.101396 -0.138067 0.167040 0.149971 0.974477 0.687203 0.966300
0.131737 0.061059 -0.101416 0.167040 0.149971 0.974477 0.776862 1.000000
-0.288593 1.236059 0.012401 -0.804483 0.299398 0.512999 0.987974 0.000000
-0.301878 1.229613 -0.004671 -0.804483 0.299398 0.512999 0.989017 0.000056
-0.310964 1.165106 0.018728 -0.804483 0.299398 0.512999 0.998035 0.001788
-0.295943 0.090803 0.014538 -0.616656 -0.011692 0.787146 0.988758 0.999945
-0.310964 1.165106 0.018728 -0.616656 -0.011692 0.787146 0.998035 0.001788
-0.316396 0.155782 -0.000520 -0.616656 -0.011692 0.787146 0.998018 0.998671
0.131737 0.061059 -0.101416 0.004485 -0.999215 0.039352 0.776862 1.000000
-0.235866 0.063297 -0.002691 0.004485 -0.999215 0.039352 0.961488 1.000000
-0.238982 0.062389 -0.025381 0.004485 -0.999215 0.039352 0.959942 1.000000
0.438316 0.061059 -0.153968 0.000000 -1.000000 0.000000 0.622838 1.000000
0.131737 0.061059 -0.101416 0.000000 -1.000000 0.000000 0.776862 1.000000
0.370734 0.061059 -0.167310 0.000000 -1.000000 0.000000 0.655195 1.000000
-0.294035 0.086058 -0.006844 -0.952545 -0.303890 -0.017564 0.987974 1.000000
-0.295943 0.090803 0.014538 -0.952545 -0.303890 -0.017564 0.988758 0.999945
-0.316396 0.155782 -0.000520 -0.952545 -0.303890 -0.017564 0.998018 0.998671
0.370734 1.261059 -0.167310 0.000000 1.000000 0.000000 0.655195 0.000000
0.131737 1.261059 -0.101416 0.000000 1.000000 0.000000 0.776862 0.000000
0.438316 1.261059 -0.153968 0.000000 1.000000 0.000000 0.622838 0.000000
-0.238503 1.259853 -0.025803 0.005727 0.999016 0.043971 0.959661 0.000000
-0.235866 1.258821 -0.002691 0.005727 0.999016 0.043971 0.961488 0.000000
0.131737 1.261059 -0.101416 0.005727 0.999016 0.043971 0.776862 0.000000
-0.294102 0.373558 -0.006825 -0.272144 -0.000000 -0.962257 0.987974 0.750000
0.309648 1.224181 -0.138115 0.166677 -0.163539 0.972355 0.687046 0.030770
0.438316 1.261059 -0.153968 0.166677 -0.163539 0.972355 0.622838 0.000000
0.131737 1.261059 -0.101416 0.166677 -0.163539 0.972355 0.776862 0.000000
-0.238503 1.259853 -0.025803 -0.263065 -0.064107 -0.962646 0.959661 0.000000
0.006358 1.224135 -0.090338 -0.263065 -0.064107 -0.962646 0.837704 0.030770
-0.146885 1.224135 -0.048461 -0.263065 -0.064107 -0.962646 0.914325 0.030770
0.370734 1.261059 -0.167310 -0.159106 -0.107967 -0.981340 0.655195 0.000000
0.436089 1.224135 -0.173844 -0.159106 -0.107967 -0.981340 0.622838 0.030770
0.205818 1.224135 -0.136510 -0.159106 -0.107967 -0.981340 0.737974 0.030770
-0.238503 1.259853 -0.025803 -0.268969 -0.081103 -0.959728 0.959661 0.000000
-0.146885 1.224135 -0.048461 -0.268969 -0.081103 -0.959728 0.914325 0.030770
-0.243624 1.221202 -0.021101 -0.268969 -0.081103 -0.959728 0.962704 0.030770
0.136593 1.224135 -0.119119 0.154089 -0.007412 0.988029 0.772717 0.030770
0.304302 0.101260 -0.153698 0.154089 -0.007412 0.988029 0.687996 0.966301
0.550536 1.224135 -0.183676 0.154089 -0.007412 0.988029 0.565098 0.030770
0.136593 1.224135 -0.119119 0.285116 -0.009695 0.958444 0.772717 0.030770
-0.236447 1.222215 -0.008168 0.285116 -0.009695 0.958444 0.961175 0.030770
-0.237394 0.103109 -0.019206 0.285116 -0.009695 0.958444 0.960517 0.966301
0.550536 1.224135 -0.183676 0.082645 0.008482 0.996543 0.565098 0.030770
0.304302 0.101260 -0.153698 0.082645 0.008482 0.996543 0.687996 0.966301
0.681766 0.101498 -0.185004 0.082645 0.008482 0.996543 0.500000 0.966300
-0.232370 1.205493 -0.051449 -0.585932 0.000038 -0.810360 0.968198 0.043493
-0.294133 0.661058 -0.006816 -0.585932 0.000038 -0.810360 0.987974 0.500000
-0.294102 0.948559 -0.006825 -0.585932 0.000038 -0.810360 0.987974 0.250000
-0.294102 0.948559 -0.006825 -0.586056 0.000083 -0.810270 0.987974 0.250000
-0.294044 1.200673 -0.006842 -0.586056 0.000083 -0.810270 0.987974 0.030770
-0.232370 1.205493 -0.051449 -0.586056 0.000083 -0.810270 0.968198 0.043493
-0.232475 0.120104 -0.051376 -0.586081 -0.000083 -0.810253 0.968274 0.952783
-0.294044 0.124813 -0.006841 -0.586081 -0.000083 -0.810253 0.987974 0.966301
-0.294102 0.373558 -0.006825 -0.586081 -0.000083 -0.810253 0.987974 0.750000
0.205818 0.101498 -0.136510 -0.094963 -0.907022 -0.410235 0.737974 0.966300
0.006359 0.101498 -0.090338 -0.094963 -0.907022 -0.410235 0.837704 0.966300
0.172221 0.115048 -0.158691 -0.094963 -0.907022 -0.410235 0.768436 0.955024
-0.232475 0.120104 -0.051376 -0.442496 -0.719174 -0.535711 0.968274 0.952783
-0.243624 0.104412 -0.021101 -0.442496 -0.719174 -0.535711 0.962704 0.966300
-0.294044 0.124813 -0.006841 -0.442496 -0.719174 -0.535711 0.987974 0.966301
-0.146885 0.101498 -0.048460 -0.167424 -0.848758 -0.501576 0.914325 0.966301
-0.243624 0.104412 -0.021101 -0.167424 -0.848758 -0.501576 0.962704 0.966300
-0.232475 0.120104 -0.051376 -0.167424 -0.848758 -0.501576 0.968274 0.952783
0.171632 1.210482 -0.158776 -0.094977 0.906995 -0.410292 0.768701 0.042046
0.006358 1.224135 -0.090338 -0.094977 0.906995 -0.410292 0.837704 0.030770
0.205818 1.224135 -0.136510 -0.094977 0.906995 -0.410292 0.737974 0.030770
-0.243624 1.221202 -0.021101 -0.443950 0.717885 -0.536236 0.962704 0.030770
-0.232370 1.205493 -0.051449 -0.443950 0.717885 -0.536236 0.968198 0.043493
-0.294044 1.200673 -0.006842 -0.443950 0.717885 -0.536236 0.987974 0.030770
-0.232370 1.205493 -0.051449 -0.167562 0.848782 -0.501490 0.968198 0.043493
-0.243624 1.221202 -0.021101 -0.167562 0.848782 -0.501490 0.962704 0.030770
-0.146885 1.224135 -0.048461 -0.167562 0.848782 -0.501490 0.914325 0.030770
0.899582 1.210603 -0.207836 0.063939 0.000000 -0.997954 0.622838 0.042046
0.899570 0.115021 -0.207837 0.063939 0.000000 -0.997954 0.622838 0.955031
0.681766 0.961059 -0.221792 0.063939 0.000000 -0.997954 0.511255 0.250000
0.681766 1.210603 -0.221792 0.063939 0.000000 -0.997954 0.511255 0.042046
1.596101 0.120088 -0.051297 0.256388 -0.000366 -0.966574 0.968312 0.952780
1.185199 0.115074 -0.160060 0.256388 -0.000366 -0.966574 0.765381 0.955024
1.198083 1.210559 -0.157286 0.256388 -0.000366 -0.966574 0.771801 0.042046
1.595605 1.205528 -0.051611 0.256388 -0.000366 -0.966574 0.968064 0.043486
1.157713 0.101498 -0.136510 0.222547 -0.182299 -0.957727 0.737974 0.966300
1.357173 0.101498 -0.090338 0.222547 -0.182299 -0.957727 0.837704 0.966300
1.602076 0.062281 -0.025789 0.222547 -0.182299 -0.957727 0.959683 1.000000
0.992798 0.061059 -0.167310 0.222547 -0.182299 -0.957727 0.655195 1.000000
0.927442 0.101498 -0.173844 0.066756 -0.026632 -0.997414 0.622838 0.966300
0.992798 0.061059 -0.167310 0.066756 -0.026632 -0.997414 0.655195 1.000000
0.681766 0.061059 -0.189207 0.066756 -0.026632 -0.997414 0.500000 1.000000
0.681766 0.101498 -0.189207 0.066756 -0.026632 -0.997414 0.500000 0.966300
1.599404 0.103584 -0.002766 -0.263385 0.041789 0.963785 0.961485 0.966301
1.599398 0.063297 -0.002691 -0.263385 0.041789 0.963785 0.961488 1.000000
1.652124 0.086059 0.012401 -0.263385 0.041789 0.963785 0.987974 1.000000
1.652871 0.124719 0.009259 -0.263385 0.041789 0.963785 0.987974 0.966288
1.054207 0.101396 -0.138066 0.000798 0.999991 -0.004147 0.687208 0.966300
1.059052 0.101261 -0.153820 0.000798 0.999991 -0.004147 0.687904 0.966300
0.681766 0.101498 -0.185004 0.000798 0.999991 -0.004147 0.500000 0.966300
0.681766 0.101498 -0.169207 0.000798 0.999991 -0.004147 0.500000 0.966300
1.232017 1.224135 -0.117842 0.003093 -0.999600 -0.028113 0.775280 0.030770
1.600975 1.222510 -0.019142 0.003093 -0.999600 -0.028113 0.960548 0.030770
1.599403 1.222035 -0.002767 0.003093 -0.999600 -0.028113 0.961484 0.030770
1.033892 1.224230 -0.142695 0.003093 -0.999600 -0.028113 0.676897 0.030770
0.928608 1.224135 -0.169765 -0.001789 -0.999944 0.010455 0.622838 0.030770
1.232017 1.224135 -0.117842 -0.001789 -0.999944 0.010455 0.775280 0.030770
1.033892 1.224230 -0.142695 -0.001789 -0.999944 0.010455 0.676897 0.030770
1.231795 0.061059 -0.101416 -0.246526 -0.104098 0.963529 0.776862 1.000000
1.599398 0.063297 -0.002691 -0.246526 -0.104098 0.963529 0.961488 1.000000
1.599404 0.103584 -0.002766 -0.246526 -0.104098 0.963529 0.961485 0.966301
1.054207 0.101396 -0.138066 -0.246526 -0.104098 0.963529 0.687208 0.966300
1.652871 0.124719 0.009259 -0.355290 0.932839 -0.059840 0.987974 0.966288
1.600926 0.103109 -0.019206 -0.355290 0.932839 -0.059840 0.960517 0.966301
1.599404 0.103584 -0.002766 -0.355290 0.932839 -0.059840 0.961485 0.966301
1.602034 1.259853 -0.025803 0.404576 0.913689 0.038612 0.959661 0.000000
1.599396 1.258822 -0.002691 0.404576 0.913689 0.038612 0.961487 0.000000
1.652124 1.236059 0.012401 0.404576 0.913689 0.038612 0.987974 0.000000
1.665525 1.229623 -0.004665 0.404576 0.913689 0.038612 0.989018 0.000065
0.807860 0.061052 -0.167976 -0.081271 -0.223798 0.971241 0.563414 1.000000
1.054207 0.101396 -0.138066 -0.081271 -0.223798 0.971241 0.687208 0.966300
0.681766 0.101498 -0.169207 -0.081271 -0.223798 0.971241 0.500000 0.966300
1.674194 0.155760 0.018643 0.911542 -0.314365 0.265078 0.998027 0.999299
1.652124 0.086059 0.012401 0.911542 -0.314365 0.265078 0.987974 1.000000
1.657567 0.086059 -0.006844 0.911542 -0.314365 0.265078 0.987974 1.000000
1.679928 0.155783 -0.000520 0.911542 -0.314365 0.265078 0.998018 0.998671
1.652124 1.236059 0.012401 0.802040 0.298988 0.517048 0.987974 0.000000
1.674496 1.165106 0.018728 0.802040 0.298988 0.517048 0.998039 0.001476
1.665525 1.229623 -0.004665 0.802040 0.298988 0.517048 0.989018 0.000065
0.681766 0.061059 -0.189207 0.000040 -1.000000 -0.000568 0.500000 1.000000
0.992798 0.061059 -0.167310 0.000040 -1.000000 -0.000568 0.655195 1.000000
0.807860 0.061052 -0.167976 0.000040 -1.000000 -0.000568 0.563414 1.000000
0.809992 1.261081 -0.167905 0.000127 0.999998 -0.001806 0.564488 0.000000
0.992798 1.261059 -0.167310 0.000127 0.999998 -0.001806 0.655195 0.000000
0.681766 1.261059 -0.189207 0.000127 0.999998 -0.001806 0.500000 0.000000
1.652124 0.086059 0.012401 0.368567 -0.924950 0.092875 0.987974 1.000000
1.599398 0.063297 -0.002691 0.368567 -0.924950 0.092875 0.961488 1.000000
1.602076 0.062281 -0.025789 0.368567 -0.924950 0.092875 0.959683 1.000000
1.657567 0.086059 -0.006844 0.368567 -0.924950 0.092875 0.987974 1.000000
1.599404 0.103584 -0.002766 0.000943 0.999824 -0.018753 0.961485 0.966301
1.600926 0.103109 -0.019206 0.000943 0.999824 -0.018753 0.960517 0.966301
1.059052 0.101261 -0.153820 0.000943 0.999824 -0.018753 0.687904 0.966300
1.054207 0.101396 -0.138066 0.000943 0.999824 -0.018753 0.687208 0.966300
1.033892 1.224230 -0.142695 0.000006 -0.999997 0.002244 0.676897 0.030770
0.681766 1.224135 -0.169207 0.000006 -0.999997 0.002244 0.500000 0.030770
0.550536 1.224135 -0.183676 0.000006 -0.999997 0.002244 0.565098 0.030770
0.928608 1.224135 -0.169765 0.000006 -0.999997 0.002244 0.622838 0.030770
1.231794 1.261059 -0.101416 -0.245476 0.119486 0.962011 0.776862 0.000000
1.033892 1.224230 -0.142695 -0.245476 0.119486 0.962011 0.676897 0.030770
1.599403 1.222035 -0.002767 -0.245476 0.119486 0.962011 0.961484 0.030770
1.599396 1.258822 -0.002691 -0.245476 0.119486 0.962011 0.961487 0.000000
1.599403 1.222035 -0.002767 -0.253144 -0.090114 0.963223 0.961484 0.030770
1.653531 1.200668 0.006095 -0.253144 -0.090114 0.963223 0.987974 0.030774
1.652124 1.236059 0.012401 -0.253144 -0.090114 0.963223 0.987974 0.000000
1.599396 1.258822 -0.002691 -0.253144 -0.090114 0.963223 0.961487 0.000000
1.033892 1.224230 -0.142695 -0.150324 -0.260990 0.953565 0.676897 0.030770
1.231794 1.261059 -0.101416 -0.150324 -0.260990 0.953565 0.776862 0.000000
0.809992 1.261081 -0.167905 -0.150324 -0.260990 0.953565 0.564488 0.000000
0.809992 1.261081 -0.167905 -0.073298 0.220103 0.972719 0.564488 0.000000
0.681766 1.224135 -0.169207 -0.073298 0.220103 0.972719 0.500000 0.030770
1.033892 1.224230 -0.142695 -0.073298 0.220103 0.972719 0.676897 0.030770
1.602034 1.259853 -0.025803 0.221821 0.199155 -0.954533 0.959661 0.000000
1.357173 1.224135 -0.090338 0.221821 0.199155 -0.954533 0.837704 0.030770
1.157713 1.224135 -0.136510 0.221821 0.199155 -0.954533 0.737974 0.030770
0.992798 1.261059 -0.167310 0.221821 0.199155 -0.954533 0.655195 0.000000
0.927442 1.224135 -0.173844 0.066751 0.029166 -0.997343 0.622838 0.030770
0.681766 1.224135 -0.189207 0.066751 0.029166 -0.997343 0.500000 0.030770
0.681766 1.261059 -0.189207 0.066751 0.029166 -0.997343 0.500000 0.000000
0.992798 1.261059 -0.167310 0.066751 0.029166 -0.997343 0.655195 0.000000
1.665525 1.229623 -0.004665 0.277076 -0.047446 -0.959676 0.989018 0.000065
1.657575 1.200673 -0.006842 0.277076 -0.047446 -0.959676 0.987974 0.030770
1.607156 1.221202 -0.021101 0.277076 -0.047446 -0.959676 0.962704 0.030770
1.602034 1.259853 -0.025803 0.277076 -0.047446 -0.959676 0.959661 0.000000
1.600926 0.103109 -0.019206 -0.457072 0.001403 0.889428 0.960517 0.966301
1.652871 0.124719 0.009259 -0.457072 0.001403 0.889428 0.987974 0.966288
1.653531 1.200668 0.006095 -0.457072 0.001403 0.889428 0.987974 0.030774
1.600975 1.222510 -0.019142 -0.457072 0.001403 0.889428 0.960548 0.030770
1.657665 0.661059 -0.006816 0.585542 0.000018 -0.810642 0.987974 0.500000
1.657634 0.373559 -0.006825 0.585542 0.000018 -0.810642 0.987974 0.750000
1.596101 0.120088 -0.051297 0.585542 0.000018 -0.810642 0.968312 0.952780
1.595605 1.205528 -0.051611 0.585542 0.000018 -0.810642 0.968064 0.043486
0.899570 0.115021 -0.207837 0.024342 -0.922559 -0.385088 0.622838 0.955031
0.927442 0.101498 -0.173844 0.024342 -0.922559 -0.385088 0.622838 0.966300
0.681766 0.101498 -0.189207 0.024342 -0.922559 -0.385088 0.500000 0.966300
0.681766 0.115030 -0.221791 0.024342 -0.922559 -0.385088 0.511254 0.955024
1.185199 0.115074 -0.160060 0.070268 -0.902283 -0.425379 0.765381 0.955024
1.157713 0.101498 -0.136510 0.070268 -0.902283 -0.425379 0.737974 0.966300
0.927442 0.101498 -0.173844 0.070268 -0.902283 -0.425379 0.622838 0.966300
0.899570 0.115021 -0.207837 0.070268 -0.902283 -0.425379 0.622838 0.955031
1.596101 0.120088 -0.051297 0.153433 -0.822808 -0.547215 0.968312 0.952780
1.510417 0.101498 -0.048460 0.153433 -0.822808 -0.547215 0.914325 0.966301
1.357173 0.101498 -0.090338 0.153433 -0.822808 -0.547215 0.837704 0.966300
1.185199 0.115074 -0.160060 0.153433 -0.822808 -0.547215 0.765381 0.955024
1.595605 1.205528 -0.051611 0.152360 0.827431 -0.540503 0.968064 0.043486
1.198083 1.210559 -0.157286 0.152360 0.827431 -0.540503 0.771801 0.042046
1.357173 1.224135 -0.090338 0.152360 0.827431 -0.540503 0.837704 0.030770
1.510417 1.224135 -0.048461 0.152360 0.827431 -0.540503 0.914325 0.030770
0.899582 1.210603 -0.207836 0.071428 0.900329 -0.429310 0.622838 0.042046
0.927442 1.224135 -0.173844 0.071428 0.900329 -0.429310 0.622838 0.030770
1.157713 1.224135 -0.136510 0.071428 0.900329 -0.429310 0.737974 0.030770
1.198083 1.210559 -0.157286 0.071428 0.900329 -0.429310 0.771801 0.042046
0.899582 1.210603 -0.207836 0.024366 0.922511 -0.385200 0.622838 0.042046
0.681766 1.210603 -0.221792 0.024366 0.922511 -0.385200 0.511255 0.042046
0.681766 1.224135 -0.189207 0.024366 0.922511 -0.385200 0.500000 0.030770
0.927442 1.224135 -0.173844 0.024366 0.922511 -0.385200 0.622838 0.030770
-0.294133 0.661058 -0.006816 -0.270458 -0.000051 -0.962732 0.987974 0.500000
-0.316396 0.155782 -0.000520 -0.270458 -0.000051 -0.962732 0.998018 0.998671
-0.301878 1.229613 -0.004671 -0.270458 -0.000051 -0.962732 0.989017 0.000056
-0.294102 0.948559 -0.006825 -0.270458 -0.000051 -0.962732 0.987974 0.250000
1.607156 1.221202 -0.021101 0.443943 0.717548 -0.536693 0.962704 0.030770
1.657575 1.200673 -0.006842 0.443943 0.717548 -0.536693 0.987974 0.030770
1.595605 1.205528 -0.051611 0.443943 0.717548 -0.536693 0.968064 0.043486
-0.243624 0.104412 -0.021101 -0.283585 0.034481 -0.958327 0.962704 0.966300
-0.238982 0.062389 -0.025381 -0.283585 0.034481 -0.958327 0.959942 1.000000
-0.294035 0.086058 -0.006844 -0.283585 0.034481 -0.958327 0.987974 1.000000
-0.294044 0.124813 -0.006841 -0.283585 0.034481 -0.958327 0.987974 0.966301
0.681766 0.961059 -0.221792 -0.063939 0.000000 -0.997954 0.511255 0.250000
0.463962 0.115021 -0.207837 -0.063939 0.000000 -0.997954 0.622838 0.955031
0.463949 1.210603 -0.207836 -0.063939 0.000000 -0.997954 0.622838 0.042046
0.681766 1.210603 -0.221792 -0.063939 0.000000 -0.997954 0.511255 0.042046
-0.238982 0.062389 -0.025381 -0.269613 0.068053 -0.960561 0.959942 1.000000
-0.243624 0.104412 -0.021101 -0.269613 0.068053 -0.960561 0.962704 0.966300
-0.146885 0.101498 -0.048460 -0.269613 0.068053 -0.960561 0.914325 0.966301
1.665525 1.229623 -0.004665 0.269452 -0.000082 -0.963014 0.989018 0.000065
1.679928 0.155783 -0.000520 0.269452 -0.000082 -0.963014 0.998018 0.998671
1.657665 0.661059 -0.006816 0.269452 -0.000082 -0.963014 0.987974 0.500000
1.657634 0.948559 -0.006825 0.269452 -0.000082 -0.963014 0.987974 0.250000
0.171632 1.210482 -0.158776 -0.256535 -0.000127 -0.966535 0.768701 0.042046
0.172221 0.115048 -0.158691 -0.256535 -0.000127 -0.966535 0.768436 0.955024
-0.232475 0.120104 -0.051376 -0.256535 -0.000127 -0.966535 0.968274 0.952783
-0.232370 1.205493 -0.051449 -0.256535 -0.000127 -0.966535 0.968198 0.043493
0.205818 0.101498 -0.136510 -0.222774 -0.185694 -0.957021 0.737974 0.966300
0.370734 0.061059 -0.167310 -0.222774 -0.185694 -0.957021 0.655195 1.000000
-0.238982 0.062389 -0.025381 -0.222774 -0.185694 -0.957021 0.959942 1.000000
0.006359 0.101498 -0.090338 -0.222774 -0.185694 -0.957021 0.837704 0.966300
0.681766 0.061059 -0.189207 -0.066756 -0.026633 -0.997414 0.500000 1.000000
0.370734 0.061059 -0.167310 -0.066756 -0.026633 -0.997414 0.655195 1.000000
0.436089 0.101498 -0.173844 -0.066756 -0.026633 -0.997414 0.622838 0.966300
0.681766 0.101498 -0.189207 -0.066756 -0.026633 -0.997414 0.500000 0.966300
-0.235873 0.103584 -0.002766 0.267531 0.045661 0.962467 0.961485 0.966301
-0.289338 0.124814 0.009254 0.267531 0.045661 0.962467 0.987974 0.966294
-0.295943 0.090803 0.014538 0.267531 0.045661 0.962467 0.988758 0.999945
-0.235866 0.063297 -0.002691 0.267531 0.045661 0.962467 0.961488 1.000000
0.681766 0.101498 -0.185004 -0.000805 0.999991 -0.004224 0.500000 0.966300
0.304302 0.101260 -0.153698 -0.000805 0.999991 -0.004224 0.687996 0.966301
0.309334 0.101396 -0.138067 -0.000805 0.999991 -0.004224 0.687203 0.966300
0.681766 0.101498 -0.169207 -0.000805 0.999991 -0.004224 0.500000 0.966300
-0.235873 0.103584 -0.002766 0.246524 -0.104107 0.963529 0.961485 0.966301
-0.235866 0.063297 -0.002691 0.246524 -0.104107 0.963529 0.961488 1.000000
0.131737 0.061059 -0.101416 0.246524 -0.104107 0.963529 0.776862 1.000000
0.309334 0.101396 -0.138067 0.246524 -0.104107 0.963529 0.687203 0.966300
1.607156 0.104412 -0.021101 0.284615 0.037637 -0.957903 0.962704 0.966300
1.657576 0.124813 -0.006841 0.284615 0.037637 -0.957903 0.987974 0.966301
1.657567 0.086059 -0.006844 0.284615 0.037637 -0.957903 0.987974 1.000000
1.602076 0.062281 -0.025789 0.284615 0.037637 -0.957903 0.959683 1.000000
0.681766 0.101498 -0.169207 0.060731 0.010505 0.998099 0.500000 0.966300
0.309334 0.101396 -0.138067 0.060731 0.010505 0.998099 0.687203 0.966300
0.438316 0.061059 -0.153968 0.060731 0.010505 0.998099 0.622838 1.000000
0.807860 0.061052 -0.167976 0.060731 0.010505 0.998099 0.563414 1.000000
-0.288593 1.236059 0.012401 -0.405276 0.913424 0.037531 0.987974 0.000000
-0.235866 1.258821 -0.002691 -0.405276 0.913424 0.037531 0.961488 0.000000
-0.238503 1.259853 -0.025803 -0.405276 0.913424 0.037531 0.959661 0.000000
-0.301878 1.229613 -0.004671 -0.405276 0.913424 0.037531 0.989017 0.000056
0.438316 0.061059 -0.153968 -0.000016 -1.000000 -0.000111 0.622838 1.000000
0.370734 0.061059 -0.167310 -0.000016 -1.000000 -0.000111 0.655195 1.000000
0.681766 0.061059 -0.189207 -0.000016 -1.000000 -0.000111 0.500000 1.000000
0.807860 0.061052 -0.167976 -0.000016 -1.000000 -0.000111 0.563414 1.000000
0.438316 1.261059 -0.153968 -0.000051 1.000000 -0.000349 0.622838 0.000000
0.809992 1.261081 -0.167905 -0.000051 1.000000 -0.000349 0.564488 0.000000
0.681766 1.261059 -0.189207 -0.000051 1.000000 -0.000349 0.500000 0.000000
0.370734 1.261059 -0.167310 -0.000051 1.000000 -0.000349 0.655195 0.000000
-0.295943 0.090803 0.014538 -0.369315 -0.920424 0.128162 0.988758 0.999945
-0.294035 0.086058 -0.006844 -0.369315 -0.920424 0.128162 0.987974 1.000000
-0.238982 0.062389 -0.025381 -0.369315 -0.920424 0.128162 0.959942 1.000000
-0.235866 0.063297 -0.002691 -0.369315 -0.920424 0.128162 0.961488 1.000000
0.304302 0.101260 -0.153698 -0.000972 0.999821 -0.018879 0.687996 0.966301
-0.237394 0.103109 -0.019206 -0.000972 0.999821 -0.018879 0.960517 0.966301
-0.235873 0.103584 -0.002766 -0.000972 0.999821 -0.018879 0.961485 0.966301
0.309334 0.101396 -0.138067 -0.000972 0.999821 -0.018879 0.687203 0.966300
0.131737 1.261059 -0.101416 0.242559 0.028780 0.969710 0.776862 0.000000
-0.235866 1.258821 -0.002691 0.242559 0.028780 0.969710 0.961488 0.000000
-0.236447 1.222215 -0.008168 0.242559 0.028780 0.969710 0.961175 0.030770
0.309648 1.224181 -0.138115 0.242559 0.028780 0.969710 0.687046 0.030770
0.550536 1.224135 -0.183676 -0.000071 -1.000000 0.000638 0.565098 0.030770
0.681766 1.224135 -0.169207 -0.000071 -1.000000 0.000638 0.500000 0.030770
0.309648 1.224181 -0.138115 -0.000071 -1.000000 0.000638 0.687046 0.030770
0.438316 1.261059 -0.153968 0.060422 -0.013532 0.998081 0.622838 0.000000
0.309648 1.224181 -0.138115 0.060422 -0.013532 0.998081 0.687046 0.030770
0.681766 1.224135 -0.169207 0.060422 -0.013532 0.998081 0.500000 0.030770
0.809992 1.261081 -0.167905 0.060422 -0.013532 0.998081 0.564488 0.000000
-0.288593 1.236059 0.012401 0.324722 -0.161470 0.931924 0.987974 0.000000
-0.290018 1.200660 0.006101 0.324722 -0.161470 0.931924 0.987974 0.030778
-0.236447 1.222215 -0.008168 0.324722 -0.161470 0.931924 0.961175 0.030770
-0.235866 1.258821 -0.002691 0.324722 -0.161470 0.931924 0.961488 0.000000
0.205818 1.224135 -0.136510 -0.221821 0.199160 -0.954532 0.737974 0.030770
0.006358 1.224135 -0.090338 -0.221821 0.199160 -0.954532 0.837704 0.030770
-0.238503 1.259853 -0.025803 -0.221821 0.199160 -0.954532 0.959661 0.000000
0.370734 1.261059 -0.167310 -0.221821 0.199160 -0.954532 0.655195 0.000000
0.436089 1.224135 -0.173844 -0.066751 0.029166 -0.997343 0.622838 0.030770
0.370734 1.261059 -0.167310 -0.066751 0.029166 -0.997343 0.655195 0.000000
0.681766 1.261059 -0.189207 -0.066751 0.029166 -0.997343 0.500000 0.000000
0.681766 1.224135 -0.189207 -0.066751 0.029166 -0.997343 0.500000 0.030770
-0.243624 1.221202 -0.021101 -0.277445 -0.047064 -0.959588 0.962704 0.030770
-0.294044 1.200673 -0.006842 -0.277445 -0.047064 -0.959588 0.987974 0.030770
-0.301878 1.229613 -0.004671 -0.277445 -0.047064 -0.959588 0.989017 0.000056
-0.238503 1.259853 -0.025803 -0.277445 -0.047064 -0.959588 0.959661 0.000000
-0.290018 1.200660 0.006101 0.375337 -0.003376 0.926883 0.987974 0.030778
-0.289338 0.124814 0.009254 0.375337 -0.003376 0.926883 0.987974 0.966294
-0.237394 0.103109 -0.019206 0.375337 -0.003376 0.926883 0.960517 0.966301
-0.236447 1.222215 -0.008168 0.375337 -0.003376 0.926883 0.961175 0.030770
0.681766 1.210603 -0.221792 1.000000 -0.000000 0.000000 0.511255 0.042046
0.681766 1.224135 -0.189207 1.000000 -0.000000 0.000000 0.500000 0.030770
0.681766 0.961059 -0.189207 1.000000 -0.000000 0.000000 0.500000 0.250000
0.681766 0.961059 -0.221792 1.000000 -0.000000 0.000000 0.511255 0.250000
0.681766 0.661059 -0.189207 1.000000 0.000000 -0.000000 0.500000 0.500000
0.681766 0.661059 -0.221792 1.000000 0.000000 -0.000000 0.511255 0.500000
0.681766 0.361059 -0.189207 1.000000 0.000000 -0.000000 0.500000 0.750000
0.681766 0.361059 -0.221791 1.000000 0.000000 -0.000000 0.511254 0.750000
0.681766 0.101498 -0.189207 1.000000 0.000000 -0.000000 0.500000 0.966300
0.681766 0.115030 -0.221791 1.000000 0.000000 -0.000000 0.511254 0.955024
-0.294133 0.661058 -0.006816 -0.585775 -0.000006 -0.810474 0.987974 0.500000
-0.232370 1.205493 -0.051449 -0.585775 -0.000006 -0.810474 0.968198 0.043493
-0.232475 0.120104 -0.051376 -0.585775 -0.000006 -0.810474 0.968274 0.952783
-0.294102 0.373558 -0.006825 -0.585775 -0.000006 -0.810474 0.987974 0.750000
0.681766 0.101498 -0.189207 -0.024342 -0.922559 -0.385088 0.500000 0.966300
0.436089 0.101498 -0.173844 -0.024342 -0.922559 -0.385088 0.622838 0.966300
0.463962 0.115021 -0.207837 -0.024342 -0.922559 -0.385088 0.622838 0.955031
0.681766 0.115030 -0.221791 -0.024342 -0.922559 -0.385088 0.511254 0.955024
0.436089 0.101498 -0.173844 -0.070819 -0.901380 -0.427199 0.622838 0.966300
0.205818 0.101498 -0.136510 -0.070819 -0.901380 -0.427199 0.737974 0.966300
0.172221 0.115048 -0.158691 -0.070819 -0.901380 -0.427199 0.768436 0.955024
0.463962 0.115021 -0.207837 -0.070819 -0.901380 -0.427199 0.622838 0.955031
0.006359 0.101498 -0.090338 -0.153072 -0.824675 -0.544500 0.837704 0.966300
-0.146885 0.101498 -0.048460 -0.153072 -0.824675 -0.544500 0.914325 0.966301
-0.232475 0.120104 -0.051376 -0.153072 -0.824675 -0.544500 0.968274 0.952783
0.172221 0.115048 -0.158691 -0.153072 -0.824675 -0.544500 0.768436 0.955024
-0.232370 1.205493 -0.051449 -0.153037 0.825030 -0.543971 0.968198 0.043493
-0.146885 1.224135 -0.048461 -0.153037 0.825030 -0.543971 0.914325 0.030770
0.006358 1.224135 -0.090338 -0.153037 0.825030 -0.543971 0.837704 0.030770
0.171632 1.210482 -0.158776 -0.153037 0.825030 -0.543971 0.768701 0.042046
0.171632 1.210482 -0.158776 -0.070882 0.901231 -0.427503 0.768701 0.042046
0.205818 1.224135 -0.136510 -0.070882 0.901231 -0.427503 0.737974 0.030770
0.436089 1.224135 -0.173844 -0.070882 0.901231 -0.427503 0.622838 0.030770
0.463949 1.210603 -0.207836 -0.070882 0.901231 -0.427503 0.622838 0.042046
0.463949 1.210603 -0.207836 -0.024366 0.922512 -0.385199 0.622838 0.042046
0.436089 1.224135 -0.173844 -0.024366 0.922512 -0.385199 0.622838 0.030770
0.681766 1.224135 -0.189207 -0.024366 0.922512 -0.385199 0.500000 0.030770
0.681766 1.210603 -0.221792 -0.024366 0.922512 -0.385199 0.511255 0.042046
3 0 1 2
3 3 4 5
3 6 7 8
3 9 10 11
3 12 13 14
3 15 16 17
3 18 19 20
3 18 20 21
3 22 23 24
3 25 26 27
3 28 29 30
3 31 32 33
3 19 18 34
3 35 36 37
3 38 39 40
3 41 42 43
3 44 45 46
3 47 48 49
3 50 51 52
3 53 54 55
3 56 57 58
3 59 58 60
3 61 62 57
3 63 60 64
3 65 66 67
3 68 69 66
3 70 71 69
3 72 73 71
3 74 75 73
3 76 64 75
3 77 78 79
3 80 81 78
3 82 83 81
3 84 85 83
3 86 87 62
3 88 79 87
3 89 90 91
3 92 93 94
3 95 96 97
3 98 99 100
3 101 102 103
3 104 105 106
3 107 108 109
3 110 111 112
3 112 111 113
3 114 115 116
3 117 118 119
3 120 121 122
3 123 124 125
3 126 111 110
3 127 128 129
3 130 131 132
3 133 134 135
3 135 136 137
3 137 138 139
3 140 141 142
3 143 144 140
3 142 145 146
3 147 148 143
3 139 67 65
3 65 149 150
3 150 151 152
3 152 153 154
3 154 155 156
3 156 157 158
3 158 159 147
3 160 161 162
3 162 163 164
3 164 165 166
3 166 85 133
3 146 167 168
3 168 169 160
3 170 171 172
3 173 174 175
3 176 177 178
3 179 180 181
3 182 183 184
3 185 186 187
3 188 189 190
3 191 192 193
3 194 195 196
3 197 198 199
3 200 201 202
3 203 204 205
3 206 207 208
3 209 210 211
3 56 61 57
3 59 56 58
3 61 86 62
3 63 59 60
3 65 68 66
3 68 70 69
3 70 72 71
3 72 74 73
3 74 76 75
3 76 63 64
3 77 80 78
3 80 82 81
3 82 84 83
3 84 133 85
3 86 88 87
3 88 77 79
3 212 213 214
3 215 216 217
3 218 219 220
3 221 222 223
3 224 225 226
3 227 228 229
3 230 231 232
3 233 234 235
3 236 237 238
3 239 240 241
3 242 243 244
3 245 246 247
3 248 249 250
3 251 252 253
3 254 255 256
3 257 258 259
3 260 261 262
3 263 264 265
3 266 267 268
3 269 270 271
3 272 227 229
3 273 274 275
3 276 277 278
3 279 280 281
3 282 283 284
3 285 286 287
3 288 289 290
3 291 292 293
3 133 85 134
3 135 134 136
3 137 136 138
3 140 144 141
3 143 148 144
3 142 141 145
3 147 159 148
3 139 138 67
3 65 67 149
3 150 149 151
3 152 151 153
3 154 153 155
3 156 155 157
3 158 157 159
3 160 169 161
3 162 161 163
3 164 163 165
3 166 165 85
3 146 145 167
3 168 167 169
3 294 295 296
3 297 298 299
3 300 301 302
3 303 304 305
3 306 307 308
3 309 310 311
3 312 313 314
3 315 316 317
3 318 319 320
4 321 322 323 324
4 325 326 327 328
4 329 330 331 332
4 333 334 335 336
4 337 338 339 340
4 341 342 343 344
4 345 346 347 348
3 349 350 351
4 352 353 354 355
3 356 357 358
4 359 360 361 362
3 363 364 365
4 366 367 368 369
3 370 371 372
3 373 374 375
3 376 377 378
4 379 380 381 382
4 383 384 385 386
4 387 388 389 390
4 391 392 393 394
4 395 396 397 398
3 399 400 401
3 402 403 404
4 405 406 407 408
4 409 410 411 412
4 413 414 415 416
4 417 418 419 420
4 421 422 423 424
4 425 426 427 428
4 429 430 431 432
4 433 434 435 436
4 437 438 439 440
4 441 442 443 444
4 445 446 447 448
4 449 450 451 452
3 453 454 455
4 456 457 458 459
4 460 461 462 463
3 464 465 466
4 467 468 469 470
4 471 472 473 474
4 475 476 477 478
4 479 480 481 482
4 483 484 485 486
4 487 488 489 490
4 491 492 493 494
4 495 496 497 498
4 499 500 501 502
4 503 504 505 506
4 507 508 509 510
4 511 512 513 514
4 515 516 517 518
4 519 520 521 522
4 523 524 525 526
3 527 528 529
4 530 531 532 533
4 534 535 536 537
4 538 539 540 541
4 542 543 544 545
4 546 547 548 549
4 550 551 552 553
4 554 555 556 557
4 558 559 557 556
4 560 561 559 558
4 560 562 563 561
4 564 565 566 567
4 568 569 570 571
4 572 573 574 575
4 576 577 578 579
4 580 581 582 583
4 584 585 586 587
4 588 589 590 591
