# Blender v2.81 (sub 16) OBJ File: 'beanbag.blend'
# www.blender.org
mtllib beanbag.mtl
o Sphere
v -0.973598 0.564206 1.003328
v -1.216912 0.305671 0.763418
v -1.464507 0.395296 0.614500
v -1.393777 0.559363 0.778485
v -1.352519 0.746937 0.764637
v -1.564256 0.846250 0.537713
v -1.304805 0.943664 0.651438
v -1.105381 0.729893 0.903423
v -1.467968 0.226525 0.155085
v -1.626061 0.474700 0.414171
v -1.665727 0.392817 -0.085530
v -1.561928 0.317652 0.246457
v -1.688809 0.699404 0.390359
v -1.748764 0.569988 0.052767
v -1.497263 0.331644 -0.684590
v -1.768344 0.948460 0.050634
v -1.778303 0.827441 -0.217913
v -1.300431 0.232471 0.556624
v -1.246180 0.147528 0.238016
v -1.098993 0.145661 -0.108192
v -1.308613 0.192823 -0.510713
v -0.665121 0.241055 0.949184
v -0.881426 0.403921 1.006895
v -0.806390 0.736827 0.993360
v -0.816019 0.160799 0.716666
v -1.061280 0.961281 0.659724
v -0.580555 0.811286 0.892577
v -0.725736 0.973489 0.490389
v -0.564498 0.473308 1.095809
v -0.213650 0.207762 0.916183
v -0.336158 0.337770 1.063375
v -0.206068 0.515087 1.077009
v -0.382940 0.652135 1.045598
v -0.207939 0.157691 0.762118
v -0.402305 0.852471 0.539725
v -0.047617 0.772281 0.532268
v -0.797019 0.245669 0.097893
v -0.604495 0.253946 0.249773
v -0.473573 0.884853 0.172845
v -0.098399 0.743883 0.120352
v -1.619377 1.044600 0.319119
v -1.535566 1.207959 0.176181
v -1.518439 1.419597 -0.063865
v -1.709231 1.120015 -0.369868
v -1.303460 1.123901 0.419127
v -1.424758 1.378093 0.162227
v -1.517242 1.481755 -0.260179
v -1.199895 1.531708 0.110323
v -1.231686 1.633437 -0.118663
v -1.012203 1.811597 -0.370651
v -0.916611 1.095343 0.424351
v -1.120808 1.388890 0.290515
v -0.983716 1.402435 0.135584
v -0.793057 1.413798 -0.125703
v -0.580387 1.793011 -0.479507
v -1.025120 1.645506 -0.120493
v -0.608362 1.089243 -0.067520
v -0.404340 1.163388 -0.334107
v -0.295214 0.875914 -0.124132
v -0.214265 0.982574 -0.315055
v -1.722129 0.582012 -0.493515
v -1.632309 0.589654 -0.814306
v -1.708795 0.963192 -0.606617
v -1.509117 0.512353 -0.940855
v -1.561460 0.880647 -0.988324
v -0.932863 0.250772 -1.128696
v -1.267544 0.422328 -1.108802
v -1.336196 0.627819 -1.214004
v -1.297104 0.829727 -1.275321
v -0.828858 0.133701 -0.638050
v -0.590040 0.110307 -1.037635
v -0.944985 0.139238 -0.764423
v -0.583317 0.203499 -0.442378
v -0.716818 0.373497 -1.440428
v -0.916745 0.652676 -1.479529
v -0.263585 0.407778 -1.597323
v -0.508326 0.630833 -1.630938
v -0.415440 0.203294 -1.348857
v -0.364949 1.273542 -1.644925
v -1.485694 1.488418 -0.464685
v -1.601820 1.099042 -0.791594
v -1.405924 1.438816 -0.727343
v -1.327787 1.039741 -1.179320
v -1.171403 1.396226 -1.013482
v -1.136501 1.649272 -0.686493
v -0.834997 1.899851 -0.746928
v -0.241311 1.951475 -0.794019
v -0.594687 1.870922 -1.004648
v -0.320940 1.757403 -1.222175
v -0.712368 1.928672 -0.554227
v -0.453047 2.000242 -0.832282
v -0.980508 0.935164 -1.435945
v -0.827404 1.543536 -1.193905
v -0.691738 1.281498 -1.491652
v -0.477654 1.434414 -1.525786
v 0.197430 0.136792 0.524836
v 0.426501 0.201233 0.747016
v 0.014281 0.295821 0.993948
v -0.088637 0.427608 1.039429
v 0.351078 0.391242 0.943831
v 0.121665 0.571161 0.977509
v 0.118818 0.699306 0.838748
v 0.549009 0.319874 0.831450
v 0.614038 0.542155 0.804114
v 0.091190 0.183295 0.127763
v 0.511956 0.208821 -0.341183
v 0.125542 0.801674 -0.156636
v 0.760681 0.751393 0.293585
v 0.553900 0.770030 -0.056328
v 0.829851 0.315905 0.636275
v 1.099209 0.429597 0.440525
v 0.920345 0.575894 0.574378
v 0.916855 0.689607 0.455523
v 0.681313 0.169755 0.485779
v 1.055447 0.240996 0.279463
v 0.893449 0.167001 -0.010158
v 0.985230 0.166970 -0.513054
v 1.174986 0.213561 -0.323115
v 1.077835 0.786331 0.093082
v 0.937199 0.990048 -0.184938
v 0.915748 0.869605 -0.068149
v 1.137844 0.614395 0.313411
v 1.238589 0.338814 0.027070
v 1.288998 0.541764 -0.042604
v 1.230328 0.687431 -0.057271
v 1.258784 0.354724 -0.472360
v 1.115410 0.841420 -0.121629
v 1.069651 0.984137 -0.297518
v -0.071371 0.100783 -1.057405
v 0.550015 0.177644 -0.774831
v -0.058662 0.357234 -1.560200
v -0.079875 0.703702 -1.729266
v 0.241674 0.795849 -1.735291
v -0.103648 1.303542 -1.676982
v 0.200769 0.281118 -1.405619
v 0.372778 0.565454 -1.643972
v 0.646501 1.157561 -1.597691
v 0.529029 0.190364 -1.025932
v 1.085530 0.251944 -0.680567
v 1.238986 0.790122 -0.791133
v 1.168432 0.883652 -0.475460
v 1.196771 1.036925 -0.953974
v 1.068885 1.261520 -0.850998
v 1.074171 0.551682 -1.139873
v 1.140807 0.957317 -1.196190
v 1.068390 1.177174 -1.163883
v 0.779340 0.543231 -1.432801
v 0.957843 0.792830 -1.443695
v 0.733613 0.829021 -1.593904
v 0.962186 1.169467 -1.346856
v 1.161891 0.771281 -1.151897
v -0.147725 1.258512 -0.525562
v 0.134202 1.274833 -0.592076
v -0.238313 1.740620 -0.675245
v 0.380812 1.010993 -0.335417
v 0.488491 1.580678 -0.686260
v 0.318890 1.701318 -0.800704
v 0.148643 1.845047 -0.867583
v 0.320723 1.796824 -1.063445
v 0.401697 1.776610 -0.901261
v -0.245956 1.963157 -0.992178
v -0.018493 1.935589 -0.920319
v -0.007640 1.762137 -1.212352
v -0.159586 1.528668 -1.555301
v 0.413680 1.478589 -1.506470
v 0.244594 1.627923 -1.431604
v 0.203541 1.386822 -1.628308
v 0.724200 1.404333 -0.419813
v 0.820790 1.619450 -0.691233
v 0.678578 1.682993 -0.969436
v 0.981885 1.395522 -0.454120
v 1.027975 1.434242 -0.638324
v 0.946378 1.507912 -0.847986
v 0.537313 1.586742 -1.331593
v 0.774974 1.500454 -1.155370
vn -0.3087 -0.3988 0.8635
vn -0.6337 -0.1108 0.7656
vn -0.4266 -0.6558 0.6228
vn -0.2979 0.6737 0.6763
vn -0.5226 0.3420 0.7809
vn -0.3410 0.4530 0.8237
vn -0.7072 0.3358 0.6222
vn -0.6963 -0.5072 0.5078
vn -0.8403 -0.3949 0.3713
vn -0.7158 -0.6699 0.1968
vn -0.0969 -0.0837 0.9918
vn -0.3515 0.0385 0.9354
vn -0.0990 -0.9732 0.2075
vn -0.1389 -0.7630 0.6312
vn 0.1267 0.8628 0.4893
vn 0.0066 0.8166 0.5771
vn -0.1135 0.5595 0.8210
vn 0.2715 0.9569 0.1031
vn 0.1993 0.8769 0.4375
vn 0.1578 0.9852 0.0664
vn 0.0382 -0.9992 0.0052
vn 0.1687 -0.9854 -0.0202
vn 0.3687 0.7445 0.5565
vn 0.1022 0.6832 0.7230
vn -0.2436 0.7005 0.6708
vn -0.4127 -0.8512 0.3241
vn -0.2034 -0.9762 0.0753
vn -0.9091 0.0043 0.4166
vn 0.0128 -0.9874 0.1574
vn 0.0310 0.9780 0.2061
vn 0.3484 0.8187 0.4564
vn 0.4428 0.8302 0.3387
vn -0.4396 0.6511 0.6186
vn -0.0952 0.8217 0.5619
vn -0.5225 0.5745 0.6299
vn -0.7141 0.6451 0.2719
vn 0.6081 0.4730 0.6375
vn 0.4298 0.5257 0.7341
vn 0.3341 0.7167 0.6120
vn -0.3121 0.9218 0.2298
vn 0.5404 -0.7860 0.3002
vn 0.7888 -0.1626 0.5928
vn 0.5503 -0.4786 0.6841
vn 0.3350 0.9052 0.2613
vn 0.7020 -0.5258 -0.4803
vn 0.9048 -0.1504 -0.3983
vn 0.9083 -0.3793 -0.1762
vn -0.6109 -0.7451 -0.2675
vn -0.3539 -0.8295 -0.4320
vn -0.3526 -0.9266 -0.1306
vn -0.8298 0.1015 -0.5487
vn -0.6297 -0.3016 -0.7158
vn -0.8730 -0.2998 -0.3847
vn -0.6053 0.0671 -0.7931
vn -0.5039 -0.6571 -0.5605
vn -0.7013 -0.4878 -0.5198
vn -0.3356 -0.6046 -0.7223
vn 0.0287 -0.9961 0.0832
vn -0.0171 0.5436 0.8391
vn -0.1663 0.6522 0.7396
vn 0.0561 0.6015 0.7969
vn 0.4418 0.8811 0.1688
vn -0.1104 -0.5411 -0.8336
vn -0.1047 -0.8571 -0.5044
vn -0.0686 -0.1726 -0.9826
vn -0.2836 -0.1823 -0.9414
vn -0.2562 0.2501 -0.9337
vn -0.4248 -0.1917 -0.8847
vn -0.4633 0.2075 -0.8615
vn 0.8337 0.5406 0.1120
vn 0.8857 0.4519 -0.1064
vn 0.7480 0.6180 -0.2418
vn -0.7117 0.6742 -0.1971
vn -0.7361 0.6737 0.0651
vn -0.5812 0.7448 -0.3276
vn -0.6420 0.6324 -0.4334
vn -0.8231 0.3842 -0.4181
vn 0.1872 -0.9762 -0.1090
vn 0.5886 -0.8081 -0.0206
vn 0.1140 -0.9929 0.0350
vn 0.5316 0.4772 0.6997
vn 0.4191 0.3879 0.8209
vn -0.1678 0.6213 0.7654
vn 0.0225 0.9328 -0.3597
vn 0.2857 0.8299 0.4793
vn 0.2811 0.9582 0.0527
vn -0.3399 0.5468 -0.7651
vn -0.4866 0.3687 -0.7920
vn 0.0632 -0.6666 -0.7427
vn -0.5080 0.5940 -0.6238
vn -0.5604 0.5752 -0.5958
vn 0.0038 0.9207 0.3902
vn 0.0027 -0.9989 0.0462
vn 0.1935 -0.8646 0.4637
vn 0.1592 0.1360 0.9778
vn 0.0701 -0.4772 0.8760
vn 0.1845 -0.2027 0.9617
vn 0.2374 -0.9219 -0.3062
vn 0.0238 -0.9997 0.0019
vn 0.0678 -0.9906 -0.1185
vn 0.3305 -0.2036 0.9216
vn 0.4557 0.3803 0.8048
vn 0.2580 0.4349 0.8627
vn 0.1154 -0.5391 0.8343
vn 0.0855 0.5489 0.8315
vn 0.0646 0.8300 -0.5539
vn 0.2730 0.9254 -0.2627
vn 0.1557 0.7714 -0.6170
vn 0.9076 0.3921 0.1498
vn 0.9472 0.3088 -0.0858
vn -0.1121 0.9154 0.3865
vn 0.1599 0.9818 0.1022
vn 0.0314 0.8616 0.5066
vn 0.4246 -0.4448 0.7885
vn 0.2305 -0.9414 0.2463
vn 0.0220 0.8538 0.5201
vn 0.9832 0.0910 0.1581
vn 0.8661 -0.4540 0.2089
vn 0.7774 0.4307 0.4584
vn 0.5741 0.3622 0.7343
vn 0.5913 0.7314 0.3396
vn 0.1771 0.6283 0.7575
vn -0.9540 0.1590 -0.2540
vn -0.1276 0.6165 0.7769
vn 0.6193 0.6218 0.4794
vn 0.5618 0.6458 0.5170
vn 0.5429 -0.7643 -0.3478
vn 0.9933 0.1064 -0.0435
vn 0.6717 0.4036 -0.6211
vn 0.6670 -0.1437 -0.7310
vn 0.4070 0.3050 -0.8610
vn 0.8813 0.1407 -0.4511
vn 0.4400 -0.1100 -0.8912
vn 0.2445 -0.4888 -0.8374
vn 0.1197 -0.0918 -0.9886
vn 0.3286 0.7598 0.5610
vn 0.2429 0.9217 0.3023
vn -0.0700 0.9965 -0.0463
vn -0.5151 -0.8542 0.0713
vn -0.0493 0.2894 -0.9559
vn 0.1463 0.4172 -0.8969
vn -0.1011 0.6522 -0.7512
vn 0.3406 0.5728 -0.7455
vn 0.4396 0.7215 -0.5349
vn -0.1335 0.7608 -0.6351
vn 0.3442 0.8840 0.3162
vn 0.6392 0.6499 -0.4111
vn 0.4682 0.8605 -0.2009
vn 0.5523 0.5928 0.5861
vn -0.7860 -0.6175 -0.0286
vn -0.9547 -0.2784 0.1046
vn -0.9316 -0.3059 -0.1963
vn 0.1471 -0.9661 -0.2120
vn -0.3327 0.7689 -0.5459
vn -0.2006 -0.9692 -0.1429
vn 0.8341 0.5110 0.2074
vn -0.9258 0.3676 -0.0880
vn 0.3112 0.4533 0.8352
vn 0.2843 0.6729 0.6829
vn 0.0566 -0.9895 0.1332
vn -0.6926 0.5197 0.5001
vn -0.9560 0.2380 0.1714
vn -0.9977 0.0139 -0.0658
vn -0.5895 0.4042 -0.6993
vn 0.1064 -0.8398 0.5323
vn 0.3918 0.8140 0.4288
vn -0.4114 0.8555 0.3143
vn -0.1354 -0.9719 -0.1927
vn 0.7580 0.4920 0.4282
vn -0.4629 0.8507 -0.2489
vn 0.1994 -0.8256 -0.5277
vn 0.4529 -0.6058 -0.6541
vn 0.7948 0.4840 -0.3660
vn -0.0418 -0.9986 -0.0310
vn 0.0178 -0.9997 0.0179
usemtl None
s 1
f 23//1 4//2 2//3
f 7//4 5//5 8//6
f 5//5 6//7 4//2
f 3//8 10//9 12//10
f 23//1 29//11 1//12
f 2//3 25//13 22//14
f 27//15 26//16 24//17
f 35//18 27//15 102//19
f 36//20 35//18 102//19
f 20//21 37//22 25//13
f 51//23 52//24 45//25
f 18//26 19//27 25//13
f 6//7 13//28 4//2
f 37//22 34//29 25//13
f 108//30 113//31 119//32
f 42//33 45//25 52//24
f 48//34 46//35 52//24
f 46//35 43//36 42//33
f 54//37 55//38 56//39
f 48//34 56//39 50//40
f 115//41 111//42 110//43
f 28//44 51//23 26//16
f 144//45 151//46 126//47
f 15//48 66//49 21//50
f 65//51 68//52 62//53
f 69//54 68//52 65//51
f 68//52 67//55 64//56
f 68//52 74//57 67//55
f 20//21 70//58 37//22
f 153//59 156//60 157//61
f 28//44 35//18 39//62
f 76//63 78//64 74//57
f 132//65 77//66 79//67
f 74//57 78//64 66//49
f 77//66 74//57 75//68
f 92//69 75//68 69//54
f 172//70 143//71 173//72
f 50//40 80//73 47//74
f 85//75 82//76 80//73
f 50//40 85//75 80//73
f 80//73 82//76 81//77
f 117//78 118//79 116//80
f 58//81 154//82 55//38
f 153//59 155//83 156//60
f 161//84 87//85 162//86
f 95//87 79//67 94//88
f 78//64 76//63 131//89
f 93//90 94//88 84//91
f 93//90 95//87 94//88
f 85//75 84//91 82//76
f 56//39 55//38 90//92
f 34//29 96//93 97//94
f 32//95 31//96 99//97
f 138//98 130//99 129//100
f 100//101 104//102 101//103
f 97//94 100//101 98//104
f 32//95 101//103 33//105
f 163//106 159//107 166//108
f 141//109 142//110 143//71
f 109//111 36//20 108//30
f 40//112 109//111 107//113
f 110//43 104//102 103//114
f 118//79 115//41 116//80
f 116//80 115//41 114//115
f 119//32 121//116 108//30
f 124//117 111//42 123//118
f 123//118 111//42 115//41
f 111//42 122//119 112//120
f 121//116 127//121 120//122
f 114//115 110//43 97//94
f 126//47 123//118 118//79
f 110//43 103//114 97//94
f 81//77 65//51 63//123
f 138//98 117//78 130//99
f 124//117 123//118 126//47
f 168//124 155//83 120//122
f 57//125 53//126 51//23
f 139//127 144//45 126//47
f 140//128 142//110 141//109
f 150//129 148//130 137//131
f 145//132 151//46 148//130
f 148//130 151//46 144//45
f 149//133 136//134 133//135
f 139//127 126//47 118//79
f 109//111 108//30 121//116
f 154//82 158//136 87//85
f 168//124 156//60 155//83
f 160//137 158//136 157//61
f 159//107 162//86 158//136
f 160//137 159//107 158//136
f 15//48 62//53 64//56
f 91//138 87//85 161//84
f 15//48 21//50 9//139
f 118//79 123//118 115//41
f 79//67 134//140 132//65
f 167//141 134//140 164//142
f 165//143 166//108 174//144
f 77//66 76//63 74//57
f 67//55 66//49 15//48
f 137//131 167//141 165//143
f 166//108 167//141 164//142
f 164//142 95//87 89//145
f 156//60 169//146 160//137
f 175//147 173//72 143//71
f 170//148 160//137 169//146
f 19//27 20//21 25//13
f 172//70 171//149 141//109
f 11//150 14//151 61//152
f 170//148 173//72 175//147
f 173//72 169//146 172//70
f 150//129 174//144 175//147
f 174//144 159//107 170//148
f 168//124 171//149 169//146
f 38//153 96//93 34//29
f 132//65 76//63 77//66
f 154//82 87//85 55//38
f 89//145 88//154 161//84
f 21//50 72//155 20//21
f 141//109 127//121 125//156
f 47//74 80//73 44//157
f 152//158 58//81 60//159
f 73//160 70//58 129//100
f 41//161 16//162 6//7
f 17//163 63//123 61//152
f 65//51 83//164 69//54
f 107//113 153//59 60//159
f 155//83 153//59 107//113
f 2//3 18//26 25//13
f 4//2 3//8 2//3
f 18//26 2//3 3//8
f 5//5 7//4 6//7
f 13//28 6//7 16//162
f 9//139 11//150 15//48
f 16//162 17//163 14//151
f 18//26 9//139 19//27
f 16//162 14//151 13//28
f 19//27 9//139 21//50
f 55//38 87//85 90//92
f 19//27 21//50 20//21
f 12//10 11//150 9//139
f 10//9 13//28 14//151
f 89//145 95//87 88//154
f 1//12 24//17 8//6
f 8//6 24//17 26//16
f 27//15 28//44 26//16
f 22//14 30//165 31//96
f 31//96 32//95 29//11
f 35//18 28//44 27//15
f 29//11 24//17 1//12
f 40//112 59//166 39//62
f 8//6 26//16 7//4
f 34//29 37//22 38//153
f 44//157 43//36 47//74
f 43//36 44//157 16//162
f 52//24 46//35 42//33
f 51//23 28//44 39//62
f 49//167 47//74 43//36
f 43//36 16//162 41//161
f 53//126 56//39 48//34
f 53//126 54//37 56//39
f 48//34 50//40 49//167
f 51//23 45//25 26//16
f 62//53 68//52 64//56
f 71//168 66//49 78//64
f 69//54 75//68 68//52
f 141//109 171//149 128//169
f 37//22 70//58 73//160
f 86//170 88//154 93//90
f 44//157 81//77 63//123
f 80//73 81//77 44//157
f 65//51 81//77 83//164
f 82//76 83//164 81//77
f 50//40 86//170 85//75
f 85//75 86//170 84//91
f 86//170 93//90 84//91
f 92//69 84//91 94//88
f 84//91 92//69 83//164
f 97//94 96//93 114//115
f 34//29 97//94 98//104
f 30//165 98//104 99//97
f 99//97 101//103 32//95
f 92//69 69//54 83//164
f 51//23 53//126 52//24
f 94//88 79//67 92//69
f 40//112 107//113 59//166
f 36//20 109//111 40//112
f 110//43 111//42 112//120
f 104//102 110//43 112//120
f 117//78 139//127 118//79
f 109//111 121//116 120//122
f 124//117 122//119 111//42
f 136//134 135//171 131//89
f 127//121 128//169 120//122
f 113//31 122//119 119//32
f 103//114 104//102 100//101
f 109//111 120//122 155//83
f 34//29 98//104 30//165
f 89//145 161//84 163//106
f 73//160 129//100 130//99
f 78//64 131//89 135//171
f 136//134 147//172 135//171
f 117//78 138//98 139//127
f 132//65 134//140 133//135
f 145//132 146//173 142//110
f 137//131 148//130 149//133
f 137//131 149//133 133//135
f 139//127 147//172 144//45
f 152//158 158//136 154//82
f 158//136 162//86 87//85
f 159//107 163//106 161//84
f 159//107 161//84 162//86
f 153//59 157//61 158//136
f 174//144 166//108 159//107
f 120//122 171//149 168//124
f 168//124 169//146 156//60
f 169//146 173//72 170//148
f 146//173 175//147 143//71
f 175//147 146//173 150//129
f 156//60 160//137 157//61
f 30//165 99//97 31//96
f 6//7 7//4 41//161
f 73//160 130//99 105//174
f 72//155 70//58 20//21
f 143//71 142//110 146//173
f 143//71 172//70 141//109
f 122//119 113//31 112//120
f 106//175 130//99 117//78 116//80
f 78//64 129//100 71//168
f 61//152 14//151 17//163
f 79//67 77//66 75//68 92//69
f 14//151 11//150 12//10 10//9
f 169//146 171//149 172//70
f 84//91 83//164 82//76
f 50//40 90//92 91//138 86//170
f 119//32 122//119 125//156 127//121
f 66//49 67//55 74//57
f 29//11 32//95 33//105 24//17
f 1//12 4//2 23//1
f 139//127 138//98 135//171 147//172
f 34//29 30//165 22//14 25//13
f 148//130 144//45 147//172
f 50//40 47//74 49//167
f 116//80 96//93 38//153 105//174 106//175
f 167//141 137//131 133//135 134//140
f 67//55 15//48 64//56
f 154//82 58//81 152//158
f 79//67 95//87 164//142 134//140
f 152//158 60//159 153//59
f 10//9 3//8 4//2 13//28
f 36//20 102//19 113//31 108//30
f 57//125 58//81 54//37 53//126
f 17//163 16//162 44//157 63//123
f 8//6 5//5 4//2 1//12
f 140//128 124//117 126//47 151//46
f 53//126 48//34 52//24
f 93//90 88//154 95//87
f 119//32 127//121 121//116
f 107//113 109//111 155//83
f 164//142 89//145 163//106 166//108
f 124//117 125//156 122//119
f 151//46 145//132 142//110 140//128
f 62//53 61//152 63//123 65//51
f 58//81 55//38 54//37
f 29//11 23//1 22//14 31//96
f 41//161 7//4 45//25 42//33
f 175//147 174//144 170//148
f 42//33 43//36 41//161
f 91//138 161//84 88//154 86//170
f 3//8 12//10 9//139 18//26
f 104//102 112//120 113//31
f 105//174 130//99 106//175
f 96//93 116//80 114//115
f 114//115 115//41 110//43
f 7//4 26//16 45//25
f 101//103 102//19 27//15 33//105
f 105//174 38//153 37//22 73//160
f 136//134 131//89 76//63 132//65 133//135
f 43//36 46//35 48//34 49//167
f 61//152 62//53 15//48 11//150
f 135//171 138//98 129//100 78//64
f 72//155 71//168 70//58
f 124//117 140//128 141//109 125//156
f 56//39 90//92 50//40
f 2//3 22//14 23//1
f 153//59 158//136 152//158
f 97//94 103//114 100//101
f 72//155 21//50 66//49 71//168
f 101//103 99//97 98//104 100//101
f 166//108 165//143 167//141
f 147//172 136//134 149//133 148//130
f 60//159 59//166 107//113
f 39//62 59//166 57//125 51//23
f 24//17 33//105 27//15
f 102//19 101//103 104//102 113//31
f 128//169 171//149 120//122
f 137//131 165//143 174//144 150//129
f 70//58 71//168 129//100
f 128//169 127//121 141//109
f 90//92 87//85 91//138
f 150//129 146//173 145//132 148//130
f 40//112 39//62 35//18 36//20
f 160//137 170//148 159//107
f 58//81 57//125 59//166 60//159
f 74//57 68//52 75//68
